<svg width="12" height="14" viewBox="0 0 12 14" fill="none" xmlns="http://www.w3.org/2000/svg">
<path fill-rule="evenodd" clip-rule="evenodd" d="M11.5279 4.03832L8.16155 0.497085C8.06717 0.397748 7.93757 0.342039 7.80198 0.342039H7.66507C7.6591 0.341435 7.65352 0.339747 7.64799 0.338071C7.64122 0.336018 7.6345 0.333984 7.62719 0.333984C7.61941 0.333984 7.61246 0.336068 7.60553 0.338146L7.60553 0.338146C7.60002 0.339797 7.59452 0.341444 7.58864 0.342039H3.38018C1.72856 0.342039 0.333496 1.71866 0.333496 3.34833V6.12105C0.333496 6.39892 0.556813 6.62444 0.831971 6.62444C1.10713 6.62444 1.33045 6.39892 1.33045 6.12105V3.34833C1.33045 2.26435 2.26891 1.34883 3.38018 1.34883H7.12871V2.79057C7.12871 4.01886 8.11769 5.01961 9.3333 5.0223H9.33397C9.60912 5.0223 9.83178 4.79745 9.83244 4.52024C9.83311 4.24169 9.61045 4.01617 9.33529 4.0155C8.668 4.01416 8.12566 3.46445 8.12566 2.79057V1.91331L10.6699 4.58938V10.5395C10.6699 11.6692 9.74471 12.6605 8.68994 12.6605H3.38018C2.23103 12.6605 1.33045 11.7289 1.33045 10.5395V8.85752C1.33045 8.57964 1.10713 8.35412 0.831971 8.35412C0.556813 8.35412 0.333496 8.57964 0.333496 8.85752V10.5395C0.333496 12.2934 1.67207 13.6673 3.38018 13.6673H8.68994C10.3037 13.6673 11.6668 12.235 11.6668 10.5395V4.38734C11.6668 4.25713 11.617 4.13229 11.5279 4.03832ZM3.91355 9.93754H7.50124C7.7764 9.93754 7.99971 9.71202 7.99971 9.43414C7.99971 9.15627 7.7764 8.93075 7.50124 8.93075H3.91355C3.63839 8.93075 3.41507 9.15627 3.41507 9.43414C3.41507 9.71202 3.63839 9.93754 3.91355 9.93754ZM6.14406 6.61364H3.91355C3.63839 6.61364 3.41507 6.38812 3.41507 6.11024C3.41507 5.83237 3.63839 5.60684 3.91355 5.60684H6.14406C6.41921 5.60684 6.64253 5.83237 6.64253 6.11024C6.64253 6.38812 6.41921 6.61364 6.14406 6.61364Z" fill="#5D6E85"/>
</svg>
