<svg height="138.365" viewBox="0 0 275.953 138.365" width="275.953" xmlns="http://www.w3.org/2000/svg"><g fill="#2b3990"><path d="m721.359 226.569a34.359 34.359 0 1 1 24.318-10.057 34.274 34.274 0 0 1 -24.318 10.057zm0-53.8a19.4 19.4 0 1 0 13.744 5.681 19.4 19.4 0 0 0 -13.744-5.678z" transform="translate(-501.881 -115.309)"/><path d="m34.036 96.32h-10.742a8.354 8.354 0 0 1 -8.338-8.341v-43.341h10.915a7.48 7.48 0 1 0 0-14.961h-10.915v-22.199a7.478 7.478 0 1 0 -14.956 0v80.5a23.321 23.321 0 0 0 23.294 23.3h10.742a7.478 7.478 0 1 0 0-14.956z"/><path d="m289.816 150.48a7.481 7.481 0 0 0 -7.481 7.478v.477a34.351 34.351 0 0 0 -43.73 4.08c-.191.189-30.786 38.267-30.786 38.267a19.4 19.4 0 1 1 -6.1-31.942l-12.69 12.687a7.479 7.479 0 0 0 10.582 10.573l19.007-19.034a7.481 7.481 0 0 0 0-10.577.027.027 0 0 1 -.013 0 34.416 34.416 0 1 0 -.773 49.362s30.309-37.763 31.341-38.8a19.434 19.434 0 1 1 0 27.506 7.481 7.481 0 1 0 -10.578 10.581 34.44 34.44 0 0 0 43.73 4.066v5.848a12.291 12.291 0 0 1 -12.275 12.278 7.478 7.478 0 1 0 0 14.957 27.263 27.263 0 0 0 27.259-27.237v-63.1a7.481 7.481 0 0 0 -7.492-7.478z" transform="translate(-116.752 -109.928)"/></g><path d="m963.51 69.33-12.127 34.909a.889.889 0 0 1 -1.471.34.858.858 0 0 1 -.213-.34 36.516 36.516 0 0 0 -8.448-13.663l22.075-22.076a.849.849 0 0 1 .183.83z" fill="#f15a29" transform="translate(-687.596 -50.04)"/><path d="m889.14 80.13a.889.889 0 0 1 .6-.833l34.567-12.016a.873.873 0 0 1 .94.3l-22.075 22.078a36.52 36.52 0 0 0 -13.45-8.683.911.911 0 0 1 -.582-.846z" fill="#f89a3a" transform="translate(-649.529 -49.123)"/></svg>