<svg width="235" height="264" viewBox="0 0 235 264" fill="none" xmlns="http://www.w3.org/2000/svg">
<path d="M31.5001 25.5V31.2495M31.5001 31.2495V37M31.5001 31.2495L36.5001 35M31.5001 31.2495L26.499 27.5001M31.5001 31.2495L36.5001 27.5M31.5001 31.2495L26.499 34.9999M57.5011 25.5V31.2495M57.5011 31.2495V37M57.5011 31.2495L62.5011 35M57.5011 31.2495L52.5 27.5001M57.5011 31.2495L62.5011 27.5M57.5011 31.2495L52.5 34.9999M83.5021 25.5V31.2495M83.5021 31.2495V37M83.5021 31.2495L88.5021 35M83.5021 31.2495L78.501 27.5001M83.5021 31.2495L88.5021 27.5M83.5021 31.2495L78.501 34.9999" stroke="#2DD0CD" stroke-width="4" stroke-linecap="round"/>
<path d="M120.267 46.0929C118.11 47.326 117.36 50.0748 118.593 52.2326C119.826 54.3905 122.575 55.1401 124.733 53.9071L120.267 46.0929ZM101.833 82.6131C102.172 80.151 100.45 77.8805 97.9881 77.542C95.526 77.2034 93.2556 78.9248 92.917 81.3869L101.833 82.6131ZM188 177.5C188 179.985 190.015 182 192.5 182C194.985 182 197 179.985 197 177.5H188ZM153 220C155.485 220 157.5 217.985 157.5 215.5C157.5 213.015 155.485 211 153 211V220ZM141.5 151.5C141.5 149.015 139.485 147 137 147C134.515 147 132.5 149.015 132.5 151.5H141.5ZM132.5 182C132.5 184.485 134.515 186.5 137 186.5C139.485 186.5 141.5 184.485 141.5 182H132.5ZM72 47.5L74.2569 43.6069C73.5712 43.2094 72.7926 43 72 43V47.5ZM106.5 67.5L104.243 71.3931C105.991 72.4067 108.201 72.1304 109.646 70.7176C111.091 69.3048 111.417 67.1021 110.443 65.3314L106.5 67.5ZM95.6959 47.8562L99.6389 45.6875L95.6959 47.8562ZM86 207.5V125.5H77V207.5H86ZM177 122H184.5V113H177V122ZM89.5 122H97V113H89.5V122ZM101.5 117.5V87.5H92.5V117.5H101.5ZM97 122H177V113H97V122ZM172.5 87.5V117.5H181.5V87.5H172.5ZM137 52C156.606 52 172.5 67.8939 172.5 87.5H181.5C181.5 62.9233 161.577 43 137 43V52ZM89.5 211C87.567 211 86 209.433 86 207.5H77C77 214.404 82.5964 220 89.5 220V211ZM197 125.5C197 118.596 191.404 113 184.5 113V122C186.433 122 188 123.567 188 125.5H197ZM86 125.5C86 123.567 87.567 122 89.5 122V113C82.5964 113 77 118.596 77 125.5H86ZM124.733 53.9071C125.723 53.3413 127.565 52.8092 130.058 52.4553C132.435 52.118 134.964 52 137 52V43C134.67 43 131.7 43.132 128.793 43.5447C126.003 43.9408 122.777 44.6587 120.267 46.0929L124.733 53.9071ZM101.5 87.5C101.5 85.8397 101.614 84.2085 101.833 82.6131L92.917 81.3869C92.6419 83.3875 92.5 85.4284 92.5 87.5H101.5ZM188 125.5V177.5H197V125.5H188ZM153 211H89.5V220H153V211ZM132.5 151.5V182H141.5V151.5H132.5ZM113 34.9065V31.25H104V34.9065H113ZM92.25 10.5H23.25V19.5H92.25V10.5ZM23.25 52H72V43H23.25V52ZM69.7431 51.3931L104.243 71.3931L108.757 63.6069L74.2569 43.6069L69.7431 51.3931ZM110.443 65.3314L99.6389 45.6875L91.7529 50.0248L102.557 69.6686L110.443 65.3314ZM95.9065 43C92.3009 43 90.0154 46.8656 91.7529 50.0248L99.6389 45.6875C101.2 48.5264 99.1464 52 95.9065 52V43ZM113 31.25C113 19.7901 103.71 10.5 92.25 10.5V19.5C98.7393 19.5 104 24.7607 104 31.25H113ZM104 34.9065C104 39.3764 100.376 43 95.9065 43V52C105.347 52 113 44.347 113 34.9065H104ZM2.5 31.25C2.5 42.7099 11.7901 52 23.25 52V43C16.7607 43 11.5 37.7393 11.5 31.25H2.5ZM11.5 31.25C11.5 24.7607 16.7607 19.5 23.25 19.5V10.5C11.7901 10.5 2.5 19.7901 2.5 31.25H11.5Z" fill="#354A67"/>
<path d="M172.17 234C169.834 229.865 168.5 225.088 168.5 220C168.5 204.26 181.26 191.5 197 191.5C200.145 191.5 203.171 192.009 206 192.95M221.238 205C223.94 209.357 225.5 214.496 225.5 220C225.5 235.74 212.74 248.5 197 248.5C192.908 248.5 189.017 247.638 185.5 246.085M217.905 199.64L228.523 207.266L217.43 212.704L217.905 199.64ZM174.041 240.559L163.5 232.827L174.646 227.5L174.041 240.559Z" stroke="#2DD0CD" stroke-width="10" stroke-linecap="round" stroke-linejoin="round"/>
</svg>
