<svg width="16" height="16" viewBox="0 0 16 16" fill="none" xmlns="http://www.w3.org/2000/svg">
<path fill-rule="evenodd" clip-rule="evenodd" d="M5.87756 5.39581C5.87756 5.65199 5.67078 5.85991 5.41599 5.85991C5.1612 5.85991 4.95442 5.65199 4.95442 5.39581C4.95442 3.7071 6.32067 2.33398 8.00018 2.33398C9.67907 2.33398 11.0453 3.7071 11.0453 5.39581C11.0453 7.08452 9.67907 8.45764 8.00018 8.45764C7.31274 8.45764 6.66469 8.23549 6.12681 7.8147C5.92556 7.65753 5.88925 7.36607 6.04557 7.16372C6.20128 6.96076 6.49237 6.92487 6.69362 7.08266C7.0678 7.37473 7.51953 7.52944 8.00018 7.52944C9.17072 7.52944 10.1222 6.57215 10.1222 5.39581C10.1222 4.21947 9.17072 3.26219 8.00018 3.26219C6.82963 3.26219 5.87756 4.21947 5.87756 5.39581ZM4.6803 7.32412C4.6803 7.5803 4.47352 7.78822 4.21873 7.78822C2.89002 7.78822 1.80871 6.7016 1.80871 5.36561C1.80871 4.02962 2.89002 2.94239 4.21873 2.94239C4.47352 2.94239 4.6803 3.15031 4.6803 3.40649C4.6803 3.66267 4.47352 3.87059 4.21873 3.87059C3.39898 3.87059 2.73185 4.54137 2.73185 5.36561C2.73185 6.18985 3.39898 6.86002 4.21873 6.86002C4.47352 6.86002 4.6803 7.06793 4.6803 7.32412ZM3.35393 9.91534C3.05729 9.93514 2.75943 9.97908 2.46833 10.0447C2.02153 10.1332 1.71443 10.2841 1.63504 10.4512C1.57534 10.5781 1.57534 10.7247 1.63504 10.8516C1.67319 10.9314 1.82828 11.13 2.46033 11.2606C2.71019 11.312 2.87082 11.557 2.81974 11.8083C2.77543 12.0279 2.5828 12.1789 2.36801 12.1789C2.33724 12.1789 2.30647 12.1758 2.27508 12.1696C1.51133 12.0125 1.01591 11.7031 0.801745 11.2501C0.621424 10.8695 0.621424 10.4333 0.801745 10.0527C1.01838 9.59542 1.51503 9.28664 2.27816 9.13565C2.60372 9.06264 2.94898 9.01251 3.29177 8.98962C3.53794 8.97044 3.76627 9.16536 3.7835 9.42092C3.80073 9.67711 3.60872 9.89864 3.35393 9.91534ZM11.7887 6.87511C11.5339 6.87511 11.3271 7.08303 11.3271 7.33922C11.3271 7.5954 11.5339 7.80332 11.7887 7.80332C13.1143 7.80332 14.1932 6.71856 14.1932 5.38566C14.1932 4.05215 13.1143 2.96801 11.7887 2.96801C11.5339 2.96801 11.3271 3.17531 11.3271 3.43211C11.3271 3.68829 11.5339 3.89621 11.7887 3.89621C12.6054 3.89621 13.27 4.56451 13.27 5.38566C13.27 6.20681 12.6054 6.87511 11.7887 6.87511ZM13.7351 9.14704C14.4865 9.29679 14.9819 9.60434 15.1979 10.0592C15.3782 10.4397 15.3782 10.8754 15.1979 11.2559C14.9844 11.707 14.4902 12.0158 13.7277 12.1736C13.6969 12.1804 13.6655 12.1835 13.6341 12.1835C13.42 12.1835 13.2279 12.0319 13.183 11.8128C13.1319 11.5616 13.2926 11.3159 13.5424 11.2646C14.172 11.134 14.3271 10.936 14.3646 10.8568C14.4243 10.7306 14.4243 10.5851 14.3646 10.4589C14.2859 10.2924 13.98 10.1421 13.5455 10.0554C13.2433 9.98861 12.9455 9.94468 12.6513 9.92487C12.3965 9.90817 12.2045 9.68602 12.2217 9.43045C12.2383 9.17489 12.4605 8.98553 12.7128 8.99915C13.0544 9.02204 13.3978 9.07217 13.7351 9.14704ZM7.99999 9.41801C6.88853 9.41801 3.50674 9.41801 3.50674 11.5485C3.50674 12.0294 3.69506 12.6952 4.59236 13.1376C4.86807 13.2725 5.20163 13.3827 5.58443 13.465C5.83245 13.5207 6.07862 13.3585 6.13155 13.1079C6.18509 12.8573 6.02569 12.6104 5.77644 12.5572C5.4675 12.491 5.20533 12.4056 4.99854 12.3035C4.49451 12.0553 4.42989 11.7701 4.42989 11.5485C4.42989 10.5548 6.37157 10.3462 7.99999 10.3462C10.3694 10.3462 11.5701 10.7466 11.5701 11.5374C11.5701 12.5306 9.62842 12.7391 7.99999 12.7391C7.7452 12.7391 7.53842 12.947 7.53842 13.2032C7.53842 13.4594 7.7452 13.6673 7.99999 13.6673C9.11146 13.6673 12.4932 13.6673 12.4932 11.5374C12.4932 9.41801 9.229 9.41801 7.99999 9.41801Z" fill="#5D6E85"/>
</svg>
