<svg width="16" height="16" viewBox="0 0 16 16" fill="none" xmlns="http://www.w3.org/2000/svg">
<path fill-rule="evenodd" clip-rule="evenodd" d="M8.00012 1.3335H8.02236C11.1466 1.34577 13.679 3.89481 13.6667 7.01504V7.07701C13.6246 9.30684 12.284 11.1572 11.1671 12.3166C10.8492 12.6481 10.5109 12.9661 10.162 13.2631C9.953 13.4414 9.63922 13.4169 9.46068 13.2081C9.28213 12.9988 9.30731 12.6855 9.51629 12.5072C9.83943 12.2318 10.1538 11.936 10.4494 11.6279C11.4434 10.5966 12.6353 8.96599 12.6716 7.05889C12.6815 4.43911 10.5946 2.33733 8.01827 2.3268H8.00012C5.43258 2.3268 3.33862 4.40813 3.32867 6.97412C3.37257 8.24162 3.80108 9.44657 4.56853 10.4574C5.46419 11.6501 6.82289 12.9129 8.11427 13.7536C8.34492 13.9033 8.40989 14.2108 8.25945 14.4412C8.16461 14.5873 8.0048 14.6668 7.84206 14.6668C7.74898 14.6668 7.65532 14.6411 7.57102 14.5861C6.18832 13.6864 4.73303 12.3335 3.77357 11.0561C2.88318 9.88271 2.38501 8.48249 2.3335 7.00861C2.34579 3.85739 4.88582 1.3335 8.00012 1.3335ZM6.83694 7.07625C6.83694 7.71527 7.35794 8.23618 7.99836 8.23618C8.63878 8.23618 9.15979 7.71527 9.15979 7.07625C9.15979 6.43666 8.63878 5.91574 7.99836 5.91574C7.72381 5.91574 7.50078 5.69358 7.50078 5.41938C7.50078 5.1446 7.72381 4.92243 7.99836 4.92243C9.1873 4.92243 10.155 5.88826 10.155 7.07625C10.155 8.26366 9.1873 9.22949 7.99836 9.22949C6.80943 9.22949 5.84177 8.26366 5.84177 7.07625C5.84177 6.80147 6.0648 6.57931 6.33935 6.57931C6.6139 6.57931 6.83694 6.80147 6.83694 7.07625Z" fill="#06b7b4"/>
</svg>
