<svg width="16" height="16" viewBox="0 0 16 16" fill="none" xmlns="http://www.w3.org/2000/svg">
<path fill-rule="evenodd" clip-rule="evenodd" d="M14.6668 6.87129C14.6668 7.13376 14.4556 7.34653 14.1951 7.34653L14.1892 7.33465C14.064 7.33465 13.944 7.28458 13.8556 7.19546C13.7671 7.10633 13.7174 6.98545 13.7174 6.85941V5.89703C13.7014 4.2797 12.4038 2.97253 10.7983 2.95644H5.20199C3.5965 2.97253 2.2989 4.2797 2.28293 5.89703V10.103C2.2989 11.7203 3.5965 13.0275 5.20199 13.0436H10.7983C12.4038 13.0275 13.7014 11.7203 13.7174 10.103C13.7444 9.85939 13.9488 9.67517 14.1921 9.67517C14.4354 9.67517 14.6398 9.85939 14.6668 10.103C14.6604 12.2525 12.9322 13.9935 10.7983 14H5.20199C3.06683 13.9967 1.33674 12.2539 1.3335 10.103V5.89703C1.3335 3.74476 3.06548 2 5.20199 2H10.7983C12.9322 2.00652 14.6604 3.74747 14.6668 5.89703V6.87129ZM8.49257 7.90495L11.2347 5.69505H11.2406C11.4448 5.53154 11.7414 5.56327 11.907 5.76634C11.9858 5.86533 12.0221 5.992 12.0077 6.1181C11.9933 6.2442 11.9294 6.35925 11.8303 6.43762L9.08818 8.65346C8.39093 9.21869 7.3971 9.21869 6.69985 8.65346L3.95181 6.43762C3.75023 6.27086 3.71873 5.97203 3.88104 5.76634C3.95864 5.66776 4.07227 5.60469 4.19645 5.59128C4.32063 5.57788 4.44495 5.61527 4.54152 5.69505L7.31315 7.90495C7.65937 8.1786 8.14635 8.1786 8.49257 7.90495Z" fill="#06b7b4"/>
</svg>
