<svg width="16" height="16" viewBox="0 0 16 16" fill="none" xmlns="http://www.w3.org/2000/svg">
<path fill-rule="evenodd" clip-rule="evenodd" d="M9.07775 1.77394C9.10852 1.5023 9.35141 1.30252 9.62049 1.33747C12.2903 1.63549 14.3644 3.72161 14.6636 6.4097C14.6944 6.68134 14.5 6.92661 14.2309 6.95628C14.2119 6.95826 14.1936 6.95958 14.1752 6.95958C13.9291 6.95958 13.7163 6.77299 13.6881 6.52047C13.4393 4.29457 11.7227 2.56712 9.51181 2.31987C9.24208 2.28954 9.04829 2.04559 9.07775 1.77394ZM2.55775 3.74818C2.22058 4.21499 2.24415 4.81366 2.60619 5.61474C2.71815 5.86331 2.60947 6.15605 2.36265 6.26946C2.11648 6.38286 1.82448 6.27276 1.71253 6.02419C1.19794 4.88552 1.2071 3.93477 1.74134 3.20028C1.85395 3.00907 3.09984 1.39898 4.26585 1.47613C4.60302 1.50382 4.91204 1.66272 5.20272 1.94821C5.51109 2.25084 6.80935 3.84049 6.91345 4.34553C7.0253 4.88637 6.78424 5.30874 6.60816 5.61723L6.6077 5.61804C6.43421 5.92199 6.37398 6.05188 6.43355 6.21605C6.8722 7.29604 7.54916 8.17756 8.43889 8.81777C8.65953 8.97733 8.71059 9.28524 8.55281 9.50809C8.45722 9.6426 8.30664 9.71512 8.15345 9.71512C8.05459 9.71512 7.95442 9.68545 7.868 9.62282C6.82506 8.87184 6.03419 7.84592 5.51698 6.57143C5.2898 5.94177 5.55953 5.46969 5.7566 5.12486C5.90456 4.8664 5.9864 4.71212 5.9517 4.54729C5.86004 4.30927 4.90222 3.03478 4.5166 2.65633C4.39745 2.53831 4.28549 2.46908 4.20235 2.46248C3.76108 2.44204 2.77511 3.38555 2.55775 3.74818ZM10.0705 9.45812C10.4371 9.22603 10.9399 8.91021 11.5782 9.04274C12.0791 9.14691 13.6569 10.4544 13.9581 10.7656C14.2415 11.057 14.3993 11.3682 14.4262 11.6913C14.4687 12.9051 12.8529 14.175 12.6683 14.2818C12.3154 14.5376 11.9023 14.6668 11.4381 14.6668C10.9759 14.6668 10.4626 14.5389 9.90679 14.2791C7.76855 13.3838 4.535 10.4847 2.71756 7.82429C2.5637 7.60012 2.62001 7.29221 2.84326 7.13661C3.06651 6.98365 3.37291 7.03837 3.52611 7.26452C5.22374 9.74822 8.32701 12.5464 10.3022 13.3739C11.1016 13.7471 11.6967 13.7701 12.1387 13.451C12.483 13.24 13.4638 12.2596 13.4461 11.7493C13.4402 11.6893 13.3721 11.5765 13.2562 11.4565C12.8791 11.0675 11.6142 10.1036 11.3497 10.0034C11.1389 9.96053 10.9242 10.0858 10.5936 10.2948L10.4233 10.4016C10.1909 10.5421 9.88846 10.4656 9.74966 10.2328C9.60956 9.99811 9.68485 9.69416 9.91727 9.55372L10.0705 9.45812ZM11.3746 6.56576C11.4204 6.8018 11.626 6.96532 11.8558 6.96532C11.8872 6.96532 11.9193 6.96268 11.9507 6.95675C12.2172 6.90466 12.3906 6.64422 12.3389 6.37654C12.0731 5.00513 11.0217 3.94624 9.6599 3.67921C9.39737 3.63372 9.13615 3.80251 9.08377 4.0702C9.03205 4.33788 9.2062 4.59832 9.47201 4.65041C10.439 4.83964 11.186 5.59127 11.3746 6.56576Z" fill="#06b7b4"/>
</svg>
