<svg width="19" height="4" viewBox="0 0 19 4" fill="none" xmlns="http://www.w3.org/2000/svg">
<path d="M2.61474 3.58386C1.4468 3.58386 0.5 2.78159 0.5 1.79193C0.5 0.802275 1.4468 0 2.61474 0C3.78268 0 4.72948 0.802275 4.72948 1.79193C4.72948 2.78159 3.78268 3.58386 2.61474 3.58386Z" fill="#1B2534"/>
<path d="M9.56329 3.58386C8.39531 3.58386 7.44847 2.78159 7.44847 1.79193C7.44847 0.802275 8.39531 0 9.56329 0C10.7313 0 11.6781 0.802275 11.6781 1.79193C11.6781 2.78159 10.7313 3.58386 9.56329 3.58386Z" fill="#1B2534"/>
<path d="M16.5116 3.58386C15.3437 3.58386 14.3969 2.78159 14.3969 1.79193C14.3969 0.802275 15.3437 0 16.5116 0C17.6795 0 18.6262 0.802275 18.6262 1.79193C18.6262 2.78159 17.6795 3.58386 16.5116 3.58386Z" fill="#1B2534"/>
</svg>