<svg width="16" height="16" viewBox="0 0 16 16" fill="none" xmlns="http://www.w3.org/2000/svg">
<path fill-rule="evenodd" clip-rule="evenodd" d="M14.3278 3.62876V5.53686C14.3341 6.05566 14.1382 6.55576 13.7832 6.92711C13.4283 7.29846 12.9433 7.51064 12.4351 7.51696H11.6593C11.3964 7.48824 11.1971 7.2618 11.1971 6.99194C11.1971 6.72207 11.3964 6.49564 11.6593 6.46691H12.4116C12.6496 6.46533 12.8771 6.36689 13.0437 6.19342C13.2104 6.01995 13.3023 5.78579 13.2992 5.54286V3.62876C13.2928 3.13107 12.8991 2.72918 12.4116 2.72271H10.5366C10.0464 2.72271 9.64905 3.12836 9.64905 3.62876V6.49091C9.63948 6.78114 9.40449 7.01037 9.12005 7.00694C8.98336 7.00381 8.8536 6.94495 8.75972 6.84348C8.66585 6.74201 8.61569 6.60639 8.62043 6.46691V3.62876C8.61887 3.10893 8.82006 2.60984 9.17958 2.24171C9.5391 1.87357 10.0274 1.66665 10.5366 1.66666H12.4116C13.4617 1.69211 14.3061 2.55676 14.3278 3.62876ZM5.46405 1.66666H3.58903C2.53019 1.67321 1.67341 2.54785 1.66699 3.62876V5.54286C1.67344 6.62279 2.53114 7.49569 3.58903 7.49896H5.46405C5.97327 7.50056 6.46216 7.29517 6.82279 6.92816C7.18341 6.56115 7.3861 6.06269 7.3861 5.54286V3.62876C7.38287 2.54649 6.52423 1.66995 5.46405 1.66666ZM6.3516 5.54286C6.35474 5.78579 6.2628 6.01995 6.09618 6.19342C5.92957 6.36689 5.70203 6.46533 5.46405 6.46691H3.58903C3.34751 6.47186 3.11445 6.37609 2.94363 6.20172C2.77281 6.02734 2.679 5.78942 2.68385 5.54286V3.62876C2.68381 3.38531 2.77973 3.15208 2.95001 2.98164C3.12029 2.81119 3.3506 2.71788 3.58903 2.72271H5.46405C5.9529 2.72598 6.3484 3.12973 6.3516 3.62876V5.54286ZM10.5366 8.50102H12.4116C13.4695 8.50429 14.3272 9.37719 14.3337 10.4571V12.3712C14.3272 13.4521 13.4705 14.3268 12.4116 14.3333H10.5366C9.47872 14.3267 8.62364 13.4512 8.62043 12.3712V10.4571C8.62043 9.37679 9.47833 8.50102 10.5366 8.50102ZM13.0409 13.0137C13.2077 12.8434 13.3007 12.612 13.2992 12.3712V10.4571C13.2992 10.2168 13.2057 9.98636 13.0392 9.81645C12.8728 9.64653 12.647 9.55107 12.4116 9.55107H10.5366C10.0464 9.55107 9.64905 9.95672 9.64905 10.4571V12.3712C9.64747 12.612 9.74047 12.8434 9.90727 13.0137C10.0741 13.1839 10.3007 13.2789 10.5366 13.2773H12.4116C12.6475 13.2789 12.8742 13.1839 13.0409 13.0137ZM1.66699 12.3652V10.4571C1.66699 9.9373 1.86968 9.43884 2.2303 9.07183C2.59092 8.70482 3.07982 8.49943 3.58903 8.50103H4.35903C4.5559 8.47951 4.74753 8.57461 4.85256 8.74595C4.95759 8.9173 4.95759 9.13481 4.85256 9.30615C4.74753 9.4775 4.5559 9.5726 4.35903 9.55108H3.58903C3.09789 9.55107 2.69884 9.95576 2.69561 10.4571V12.3472C2.7081 12.8446 3.10177 13.2438 3.58903 13.2533H5.47581C5.71222 13.2549 5.93948 13.1601 6.1072 12.99C6.27492 12.8199 6.36924 12.5886 6.36924 12.3472V9.50908C6.3309 9.29713 6.4226 9.08267 6.6009 8.96726C6.77921 8.85185 7.00833 8.85865 7.17977 8.98444C7.35121 9.11023 7.43055 9.32976 7.38022 9.53908V12.3652C7.38022 13.4489 6.51969 14.3273 5.45818 14.3273H3.58903C2.5367 14.305 1.68883 13.4395 1.66699 12.3652Z" fill="#5D6E85"/>
</svg>
