<svg width="12" height="14" viewBox="0 0 12 14" fill="none" xmlns="http://www.w3.org/2000/svg">
<path fill-rule="evenodd" clip-rule="evenodd" d="M11.5274 4.03768L8.16106 0.496444C8.06669 0.397107 7.93708 0.341398 7.8015 0.341398H7.66458C7.65861 0.340794 7.65303 0.339106 7.6475 0.33743C7.64073 0.335378 7.63402 0.333344 7.6267 0.333344C7.61892 0.333344 7.61197 0.335427 7.60504 0.337505L7.60504 0.337505C7.59953 0.339156 7.59404 0.340803 7.58815 0.341398H3.37969C1.72807 0.341398 0.333008 1.71802 0.333008 3.34769V6.12041C0.333008 6.39828 0.556325 6.6238 0.831483 6.6238C1.10664 6.6238 1.32996 6.39828 1.32996 6.12041V3.34769C1.32996 2.26371 2.26842 1.34819 3.37969 1.34819H7.12822V2.78993C7.12822 4.01822 8.1172 5.01897 9.33281 5.02166H9.33348C9.60864 5.02166 9.83129 4.79681 9.83195 4.5196C9.83262 4.24105 9.60997 4.01553 9.33481 4.01486C8.66751 4.01352 8.12517 3.46381 8.12517 2.78993V1.91267L10.6694 4.58873V10.5389C10.6694 11.6685 9.74422 12.6599 8.68945 12.6599H3.37969C2.23054 12.6599 1.32996 11.7283 1.32996 10.5389V8.85688C1.32996 8.579 1.10664 8.35348 0.831483 8.35348C0.556325 8.35348 0.333008 8.579 0.333008 8.85688V10.5389C0.333008 12.2927 1.67158 13.6667 3.37969 13.6667H8.68945C10.3032 13.6667 11.6663 12.2343 11.6663 10.5389V4.3867C11.6663 4.25649 11.6165 4.13165 11.5274 4.03768ZM3.91306 9.9369H7.50075C7.77591 9.9369 7.99922 9.71138 7.99922 9.4335C7.99922 9.15563 7.77591 8.93011 7.50075 8.93011H3.91306C3.6379 8.93011 3.41458 9.15563 3.41458 9.4335C3.41458 9.71138 3.6379 9.9369 3.91306 9.9369ZM6.14357 6.613H3.91306C3.6379 6.613 3.41458 6.38748 3.41458 6.1096C3.41458 5.83172 3.6379 5.6062 3.91306 5.6062H6.14357C6.41873 5.6062 6.64204 5.83172 6.64204 6.1096C6.64204 6.38748 6.41873 6.613 6.14357 6.613Z" fill="#06b7b4"/>
</svg>
