<svg width="12" height="12" viewBox="0 0 12 12" fill="none" xmlns="http://www.w3.org/2000/svg">
<path fill-rule="evenodd" clip-rule="evenodd" d="M9.74817 1.25859C10.1685 1.59179 10.456 2.02998 10.5564 2.49337C10.6686 3.01067 10.5446 3.53566 10.208 3.96965L4.46747 11.3727C4.17729 11.7472 3.74098 11.9656 3.26936 11.9719L1.05458 11.9999H1.04835C0.806647 11.9999 0.596804 11.8319 0.542092 11.5939L0.0406857 9.41417C-0.0659671 8.95008 0.0393006 8.46918 0.330172 8.09469L1.08367 7.1224C1.26027 6.89421 1.58715 6.85361 1.81292 7.03351C2.03869 7.212 2.07817 7.5424 1.90088 7.77059L1.14738 8.74288C1.05181 8.86608 1.01718 9.02358 1.0525 9.17617L1.45903 10.9443L3.2562 10.9219C3.41064 10.9198 3.554 10.8484 3.64957 10.7252L9.39012 3.32216C9.53694 3.13316 9.5875 2.93017 9.54179 2.71737C9.49262 2.49267 9.33887 2.26798 9.10756 2.08528L8.14492 1.32159C7.77232 1.0276 7.24668 0.876399 6.88794 1.34049L6.12959 2.31768L7.33325 3.29346C7.55694 3.47406 7.59295 3.80515 7.41358 4.03055C7.31108 4.16075 7.16011 4.22795 7.00775 4.22795C6.89417 4.22795 6.7792 4.19015 6.68363 4.11245L5.48898 3.14436L3.52491 5.67763C3.34762 5.90582 3.02142 5.94712 2.79496 5.76652C2.56988 5.58803 2.53041 5.25763 2.70701 5.02944L6.07003 0.692301C6.72242 -0.150486 7.86512 -0.233085 8.78552 0.495604L9.74817 1.25859ZM7.06419 10.95H11.4806C11.7673 10.95 12 11.1852 12 11.475C12 11.7648 11.7673 12 11.4806 12H7.06419C6.77678 12 6.54478 11.7648 6.54478 11.475C6.54478 11.1852 6.77678 10.95 7.06419 10.95Z" fill="#5D6E85"/>
</svg>
