<svg width="16" height="16" viewBox="0 0 16 16" fill="none" xmlns="http://www.w3.org/2000/svg">
<path d="M14.6663 7.99999H10.6663L9.33301 9.99999H6.66634L5.33301 7.99999H3.33301M14.6663 7.99999L12.3663 3.40666C12.256 3.18451 12.0858 2.99757 11.875 2.86684C11.6642 2.73612 11.4211 2.66679 11.173 2.66666H4.82634C4.57828 2.66679 4.33518 2.73612 4.12437 2.86684C3.91356 2.99757 3.74339 3.18451 3.63301 3.40666L1.33301 7.99999V12C1.33301 12.3536 1.47348 12.6927 1.72353 12.9428C1.97358 13.1928 2.31272 13.3333 2.66634 13.3333H13.333C13.6866 13.3333 14.0258 13.1928 14.2758 12.9428C14.5259 12.6927 14.6663 12.3536 14.6663 12M14.6663 7.99999V9.99999" stroke="#1B2534" stroke-width="1.5" stroke-linecap="round" stroke-linejoin="round"/>
</svg>
