<svg width="14" height="14" viewBox="0 0 14 14" fill="none" xmlns="http://www.w3.org/2000/svg">
<path fill-rule="evenodd" clip-rule="evenodd" d="M4.96154 3.58298C4.4127 3.88716 3.73948 3.88279 3.19483 3.57151L3.17085 3.54808C2.92578 3.39932 2.85061 3.08472 3.00295 2.84541C3.15529 2.60609 3.47745 2.53268 3.72252 2.68145C3.83191 2.74378 3.95569 2.77803 4.08231 2.78099C4.27637 2.78892 4.4657 2.72116 4.60856 2.59264C4.75141 2.46412 4.83606 2.2854 4.84386 2.09588C4.84017 1.14363 5.6141 0.361889 6.58882 0.333328H7.41033C8.40385 0.333328 9.20926 1.11983 9.20926 2.09003C9.20765 2.21351 9.24084 2.33506 9.30521 2.44137C9.40072 2.60594 9.55965 2.72639 9.74662 2.77589C9.93359 2.82538 10.1331 2.79981 10.3006 2.70487C11.1448 2.25611 12.201 2.53462 12.6992 3.33728C12.8369 3.58223 12.7522 3.88962 12.5073 4.0341C12.2584 4.17285 11.9417 4.09226 11.7937 3.85258C11.5905 3.51458 11.1463 3.39961 10.7983 3.59493C10.2477 3.88938 9.57964 3.88219 9.03576 3.57596C8.49188 3.26973 8.15083 2.70878 8.1359 2.09588C8.1424 1.90394 8.06884 1.71765 7.93206 1.57966C7.79528 1.44167 7.60699 1.36382 7.41033 1.36392H6.58882C6.39164 1.36387 6.20278 1.44154 6.06506 1.57934C5.92733 1.71713 5.85241 1.90339 5.85725 2.09588C5.85169 2.71212 5.51037 3.27879 4.96154 3.58298ZM5.85725 11.9275C5.86055 12.3198 6.18712 12.6361 6.58882 12.6361L6.58282 12.6478C6.7692 12.6478 6.94143 12.7449 7.03462 12.9025C7.12781 13.0601 7.12781 13.2543 7.03462 13.4119C6.94143 13.5696 6.7692 13.6667 6.58282 13.6667C5.5893 13.6667 4.78389 12.8802 4.78389 11.91C4.78551 11.7865 4.75232 11.6649 4.68795 11.5586C4.48675 11.2185 4.0421 11.1008 3.69254 11.2951C2.84839 11.7439 1.79211 11.4654 1.29396 10.6627L0.886205 9.96589C0.426661 9.14155 0.711857 8.11007 1.53382 7.62362C1.64276 7.56104 1.73357 7.47236 1.79766 7.36597C1.91792 7.20229 1.96114 6.99634 1.91651 6.79966C1.87188 6.60297 1.74362 6.43413 1.5638 6.33538C0.741839 5.84893 0.456643 4.81745 0.916187 3.99311C0.993079 3.88023 1.11288 3.80194 1.24906 3.77556C1.38524 3.74919 1.52656 3.7769 1.64176 3.85258C1.86931 4.00368 1.93528 4.30262 1.79167 4.53184C1.5932 4.87143 1.71396 5.30384 2.06151 5.49802C2.32262 5.65427 2.53756 5.87425 2.68514 6.13629C3.14468 6.96062 2.85948 7.9921 2.03752 8.47855C1.68998 8.67273 1.56921 9.10513 1.76768 9.44473L2.18144 10.1416C2.27558 10.3076 2.43501 10.429 2.62289 10.4776C2.81077 10.5262 3.01083 10.4979 3.17684 10.3992C3.44452 10.2476 3.74889 10.1687 4.05832 10.1708C5.05184 10.1708 5.85725 10.9573 5.85725 11.9275ZM12.4593 7.61777C12.2918 7.52351 12.1697 7.36787 12.1202 7.18538C12.0707 7.00288 12.0978 6.80863 12.1955 6.64573C12.2596 6.53934 12.3504 6.45067 12.4593 6.38808C12.7054 6.24371 12.7858 5.9323 12.6392 5.69126C12.4935 5.45332 12.1826 5.3684 11.9316 5.49802C11.1097 5.98447 10.8245 7.01595 11.284 7.84028C11.43 8.12827 11.6566 8.3699 11.9376 8.5371C12.1048 8.63022 12.2267 8.78482 12.2763 8.96636C12.3259 9.14791 12.2989 9.34128 12.2015 9.50329L11.7937 10.2001C11.6955 10.3632 11.5365 10.4828 11.35 10.5339C11.1631 10.5826 10.9641 10.5551 10.7983 10.4578C10.2467 10.1629 9.5775 10.1707 9.03326 10.4783C8.48902 10.7859 8.14878 11.3487 8.1359 11.9627C8.16461 12.2245 8.3909 12.4231 8.66059 12.4231C8.93028 12.4231 9.15657 12.2245 9.18528 11.9627C9.18032 11.7068 9.31817 11.4686 9.54514 11.3407C9.7721 11.2128 10.0523 11.2156 10.2766 11.3478C11.1208 11.7966 12.1771 11.5181 12.6752 10.7154L13.083 10.0186C13.5865 9.187 13.3079 8.11445 12.4593 7.61777ZM6.99658 4.80119C6.08411 4.80119 5.2616 5.33826 4.91297 6.16171C4.56435 6.98516 4.75835 7.93262 5.40442 8.56184C6.0505 9.19107 7.02125 9.37799 7.86356 9.03536C8.70588 8.69273 9.25367 7.8881 9.25124 6.99706C9.25124 6.41366 9.01351 5.85424 8.5905 5.44227C8.1675 5.03029 7.594 4.79963 6.99658 4.80119ZM6.99658 8.17404C6.33423 8.17404 5.79729 7.64971 5.79729 7.00291C5.79729 6.35611 6.33423 5.83178 6.99658 5.83178C7.65893 5.83178 8.19587 6.35611 8.19587 7.00291C8.19587 7.64971 7.65893 8.17404 6.99658 8.17404Z" fill="#5D6E85"/>
</svg>
