<svg width="12" height="14" viewBox="0 0 12 14" fill="none" xmlns="http://www.w3.org/2000/svg">
<path fill-rule="evenodd" clip-rule="evenodd" d="M3.37257 3.90259C3.37257 2.46262 4.55127 1.29132 6.00033 1.29132C7.44938 1.29132 8.62808 2.46262 8.62808 3.90259C8.62808 5.34189 7.44938 6.51319 6.00033 6.51319C4.55127 6.51319 3.37257 5.34189 3.37257 3.90259ZM2.40854 3.90259C2.40854 5.86987 4.01995 7.47116 6.00033 7.47116C7.9807 7.47116 9.59144 5.86987 9.59144 3.90259C9.59144 1.93464 7.9807 0.333344 6.00033 0.333344C4.01995 0.333344 2.40854 1.93464 2.40854 3.90259ZM5.31873 13.6567C5.54213 13.6633 5.76955 13.6667 6.00033 13.6667C8.28997 13.6667 11.3337 13.4127 11.3337 11.2201C11.3337 8.75947 7.31923 8.75947 6.00033 8.75947C3.71068 8.75947 0.666992 9.01346 0.666992 11.2067C0.666992 11.8634 0.974246 12.7494 2.43806 13.242C2.69098 13.3287 2.96334 13.192 3.04921 12.942C3.13441 12.692 2.99957 12.4207 2.74733 12.336C1.74573 11.9987 1.63035 11.5301 1.63035 11.2067C1.63035 10.2181 3.10087 9.71678 6.00033 9.71678C8.89978 9.71678 10.3703 10.2228 10.3703 11.2201C10.3703 12.208 8.89978 12.7087 6.00033 12.7087C5.77894 12.7087 5.56091 12.706 5.34624 12.7C5.08863 12.702 4.85919 12.9007 4.85181 13.1647C4.84376 13.4293 5.05307 13.65 5.31873 13.6567Z" fill="#5D6E85"/>
</svg>
