<svg width="66" height="12" viewBox="0 0 66 12" fill="none" xmlns="http://www.w3.org/2000/svg">
<path d="M8.60372 5.088C8.60372 5.712 8.49972 6.292 8.29172 6.828C8.08372 7.364 7.79572 7.828 7.42772 8.22C7.05972 8.604 6.61572 8.908 6.09572 9.132C5.58372 9.348 5.02772 9.456 4.42772 9.456C3.81172 9.456 3.23172 9.344 2.68772 9.12C2.15172 8.896 1.68372 8.592 1.28372 8.208C0.891719 7.816 0.579719 7.356 0.347719 6.828C0.123719 6.3 0.0117188 5.732 0.0117188 5.124C0.0117188 4.516 0.123719 3.948 0.347719 3.42C0.579719 2.892 0.891719 2.436 1.28372 2.052C1.67572 1.66 2.13972 1.352 2.67572 1.128C3.21172 0.904 3.78372 0.792 4.39172 0.792C5.08772 0.792 5.75172 0.936 6.38372 1.224C7.01572 1.504 7.52772 1.904 7.91972 2.424L6.46772 3.684C6.20372 3.332 5.89172 3.068 5.53172 2.892C5.17972 2.716 4.79972 2.628 4.39172 2.628C4.07172 2.628 3.77172 2.692 3.49172 2.82C3.21972 2.948 2.98372 3.124 2.78372 3.348C2.58372 3.564 2.42772 3.828 2.31572 4.14C2.20372 4.444 2.14772 4.772 2.14772 5.124C2.14772 5.484 2.20372 5.82 2.31572 6.132C2.43572 6.436 2.59972 6.7 2.80772 6.924C3.01572 7.148 3.25972 7.324 3.53972 7.452C3.82772 7.58 4.13572 7.644 4.46372 7.644C4.93572 7.644 5.34372 7.512 5.68772 7.248C6.03972 6.984 6.27172 6.648 6.38372 6.24H4.28372V4.5H8.60372V5.088Z" fill="#354A67"/>
<path d="M11.7917 3.132V6.744C11.7917 7.088 11.8837 7.368 12.0677 7.584C12.2597 7.792 12.5117 7.896 12.8237 7.896C13.0317 7.896 13.2197 7.856 13.3877 7.776C13.5637 7.688 13.7197 7.556 13.8557 7.38V3.132H15.7997V9.324H13.8557V8.316C13.6157 8.676 13.3277 8.952 12.9917 9.144C12.6637 9.328 12.2997 9.42 11.8997 9.42C11.2997 9.42 10.8077 9.224 10.4237 8.832C10.0397 8.432 9.84769 7.924 9.84769 7.308V3.132H11.7917Z" fill="#354A67"/>
<path d="M18.2857 2.172C17.9817 2.172 17.7217 2.068 17.5057 1.86C17.2977 1.644 17.1937 1.388 17.1937 1.092C17.1937 0.795999 17.3017 0.539999 17.5177 0.323999C17.7337 0.108 17.9897 0 18.2857 0C18.5817 0 18.8377 0.108 19.0537 0.323999C19.2777 0.539999 19.3897 0.795999 19.3897 1.092C19.3897 1.388 19.2817 1.644 19.0657 1.86C18.8577 2.068 18.5977 2.172 18.2857 2.172ZM19.2577 3.132V9.324H17.3137V3.132H19.2577Z" fill="#354A67"/>
<path d="M20.7707 9.324V0.743999L22.7147 0.444V4.14C22.9547 3.78 23.2387 3.508 23.5667 3.324C23.9027 3.132 24.2707 3.036 24.6707 3.036C25.2707 3.036 25.7627 3.236 26.1467 3.636C26.5307 4.028 26.7227 4.532 26.7227 5.148V9.324H24.7787V5.712C24.7787 5.368 24.6827 5.092 24.4907 4.884C24.3067 4.668 24.0587 4.56 23.7467 4.56C23.5387 4.56 23.3467 4.604 23.1707 4.692C23.0027 4.772 22.8507 4.9 22.7147 5.076V9.324H20.7707Z" fill="#354A67"/>
<path d="M30.0367 9.42C29.4127 9.42 28.9007 9.248 28.5007 8.904C28.1007 8.552 27.9007 8.1 27.9007 7.548C27.9007 6.98 28.1127 6.54 28.5367 6.228C28.9607 5.908 29.5527 5.748 30.3127 5.748C30.5367 5.748 30.7647 5.772 30.9967 5.82C31.2287 5.86 31.4807 5.932 31.7527 6.036V5.532C31.7527 5.236 31.6487 5.012 31.4407 4.86C31.2407 4.708 30.9367 4.632 30.5287 4.632C30.2967 4.632 30.0367 4.668 29.7487 4.74C29.4687 4.804 29.1487 4.912 28.7887 5.064L28.1167 3.708C28.6207 3.484 29.1047 3.316 29.5687 3.204C30.0407 3.092 30.5047 3.036 30.9607 3.036C31.8167 3.036 32.4807 3.24 32.9527 3.648C33.4327 4.056 33.6727 4.628 33.6727 5.364V9.324H31.7527V8.784C31.4807 9.008 31.2087 9.172 30.9367 9.276C30.6647 9.372 30.3647 9.42 30.0367 9.42ZM29.6887 7.512C29.6887 7.712 29.7727 7.868 29.9407 7.98C30.1087 8.084 30.3407 8.136 30.6367 8.136C30.8367 8.136 31.0287 8.112 31.2127 8.064C31.4047 8.008 31.5847 7.928 31.7527 7.824V7.032C31.5767 6.992 31.3967 6.96 31.2127 6.936C31.0367 6.912 30.8607 6.9 30.6847 6.9C30.3647 6.9 30.1167 6.952 29.9407 7.056C29.7727 7.16 29.6887 7.312 29.6887 7.512Z" fill="#354A67"/>
<path d="M35.1379 9.324V3.132H37.0819V4.14C37.3219 3.78 37.6059 3.508 37.9339 3.324C38.2699 3.132 38.6379 3.036 39.0379 3.036C39.6379 3.036 40.1299 3.236 40.5139 3.636C40.8979 4.028 41.0899 4.532 41.0899 5.148V9.324H39.1459V5.712C39.1459 5.368 39.0499 5.092 38.8579 4.884C38.6739 4.668 38.4259 4.56 38.1139 4.56C37.9059 4.56 37.7139 4.604 37.5379 4.692C37.3699 4.772 37.2179 4.9 37.0819 5.076V9.324H35.1379Z" fill="#354A67"/>
<path d="M45.0159 9.312C44.6399 9.312 44.2839 9.232 43.9478 9.072C43.6119 8.904 43.3198 8.68 43.0718 8.4C42.8318 8.12 42.6398 7.792 42.4958 7.416C42.3518 7.032 42.2799 6.624 42.2799 6.192C42.2799 5.76 42.3518 5.356 42.4958 4.98C42.6478 4.604 42.8518 4.276 43.1078 3.996C43.3718 3.716 43.6799 3.496 44.0318 3.336C44.3839 3.176 44.7598 3.096 45.1599 3.096C45.4879 3.096 45.7959 3.164 46.0839 3.3C46.3799 3.436 46.6319 3.628 46.8398 3.876V3.132H48.7479V9.408C48.7479 10.24 48.4638 10.88 47.8958 11.328C47.3358 11.776 46.5319 12 45.4839 12C45.0199 12 44.5678 11.952 44.1278 11.856C43.6878 11.76 43.2839 11.624 42.9159 11.448L43.5159 10.044C43.8598 10.204 44.1879 10.324 44.4999 10.404C44.8119 10.484 45.1158 10.524 45.4118 10.524C45.8679 10.524 46.2159 10.428 46.4559 10.236C46.6959 10.044 46.8159 9.76 46.8159 9.384V8.496C46.6159 8.744 46.3559 8.944 46.0359 9.096C45.7159 9.24 45.3759 9.312 45.0159 9.312ZM44.1879 6.204C44.1879 6.636 44.3279 7 44.6078 7.296C44.8959 7.584 45.2478 7.728 45.6638 7.728C45.8958 7.728 46.1078 7.688 46.2999 7.608C46.4919 7.52 46.6639 7.396 46.8159 7.236V5.172C46.6639 5.02 46.4879 4.904 46.2879 4.824C46.0959 4.736 45.8878 4.692 45.6638 4.692C45.2398 4.692 44.8878 4.836 44.6078 5.124C44.3279 5.412 44.1879 5.772 44.1879 6.204Z" fill="#354A67"/>
<path d="M51.1555 7.17599C51.4515 7.17599 51.7035 7.28799 51.9115 7.51199C52.1275 7.73599 52.2355 8.00399 52.2355 8.31599C52.2355 8.62799 52.1275 8.89599 51.9115 9.11999C51.7035 9.34399 51.4515 9.45599 51.1555 9.45599C50.8595 9.45599 50.6035 9.34399 50.3875 9.11999C50.1715 8.89599 50.0635 8.62799 50.0635 8.31599C50.0635 8.00399 50.1715 7.73599 50.3875 7.51199C50.6035 7.28799 50.8595 7.17599 51.1555 7.17599Z" fill="#06b7b4"/>
<path d="M55.2804 3.13199V6.74399C55.2804 7.08799 55.3724 7.36799 55.5564 7.58399C55.7484 7.79199 56.0004 7.89599 56.3124 7.89599C56.5204 7.89599 56.7084 7.85599 56.8764 7.77599C57.0524 7.68799 57.2084 7.55599 57.3444 7.37999V3.13199H59.2884V9.32399H57.3444V8.31599C57.1044 8.67599 56.8164 8.95199 56.4804 9.14399C56.1524 9.32799 55.7884 9.41999 55.3884 9.41999C54.7884 9.41999 54.2964 9.22399 53.9124 8.83199C53.5284 8.43199 53.3364 7.92399 53.3364 7.30799V3.13199H55.2804Z" fill="#06b7b4"/>
<path d="M60.2984 8.68799L61.1504 7.39199C61.5904 7.62399 61.9584 7.78799 62.2544 7.88399C62.5504 7.97199 62.8464 8.01599 63.1424 8.01599C63.4144 8.01599 63.6304 7.97199 63.7904 7.88399C63.9504 7.78799 64.0304 7.66399 64.0304 7.51199C64.0304 7.39199 63.9824 7.29599 63.8864 7.22399C63.7984 7.15199 63.6544 7.09999 63.4544 7.06799L62.2664 6.85199C61.6664 6.73999 61.2104 6.53199 60.8984 6.22799C60.5944 5.92399 60.4424 5.53199 60.4424 5.05199C60.4424 4.41999 60.6704 3.92399 61.1264 3.56399C61.5904 3.20399 62.2264 3.02399 63.0344 3.02399C63.4664 3.02399 63.8944 3.08399 64.3184 3.20399C64.7424 3.32399 65.1544 3.49999 65.5544 3.73199L64.6664 4.96799C64.3544 4.79199 64.0504 4.65999 63.7544 4.57199C63.4664 4.48399 63.1784 4.43999 62.8904 4.43999C62.6584 4.43999 62.4744 4.47999 62.3384 4.55999C62.2104 4.63199 62.1464 4.73599 62.1464 4.87199C62.1464 4.99999 62.1904 5.09599 62.2784 5.15999C62.3744 5.22399 62.5424 5.27599 62.7824 5.31599L63.9464 5.53199C64.5544 5.64399 65.0184 5.85599 65.3384 6.16799C65.6584 6.47199 65.8144 6.85599 65.8064 7.31999C65.8064 7.62399 65.7384 7.90799 65.6024 8.17199C65.4744 8.42799 65.2904 8.65199 65.0504 8.84399C64.8104 9.02799 64.5264 9.17599 64.1984 9.28799C63.8704 9.39199 63.5184 9.44399 63.1424 9.44399C62.5824 9.44399 62.0584 9.37999 61.5704 9.25199C61.0824 9.12399 60.6584 8.93599 60.2984 8.68799Z" fill="#06b7b4"/>
</svg>
