<svg width="16" height="16" viewBox="0 0 16 16" fill="none" xmlns="http://www.w3.org/2000/svg">
<path fill-rule="evenodd" clip-rule="evenodd" d="M5.37257 4.90259C5.37257 3.46262 6.55127 2.29132 8.00033 2.29132C9.44938 2.29132 10.6281 3.46262 10.6281 4.90259C10.6281 6.34189 9.44938 7.51319 8.00033 7.51319C6.55127 7.51319 5.37257 6.34189 5.37257 4.90259ZM4.40854 4.90259C4.40854 6.86987 6.01995 8.47116 8.00033 8.47116C9.9807 8.47116 11.5914 6.86987 11.5914 4.90259C11.5914 2.93464 9.9807 1.33334 8.00033 1.33334C6.01995 1.33334 4.40854 2.93464 4.40854 4.90259ZM7.31873 14.6567C7.54213 14.6633 7.76955 14.6667 8.00033 14.6667C10.29 14.6667 13.3337 14.4127 13.3337 12.2201C13.3337 9.75947 9.31923 9.75947 8.00033 9.75947C5.71068 9.75947 2.66699 10.0135 2.66699 12.2067C2.66699 12.8634 2.97425 13.7494 4.43806 14.242C4.69098 14.3287 4.96334 14.192 5.04921 13.942C5.13441 13.692 4.99957 13.4207 4.74733 13.336C3.74573 12.9987 3.63035 12.5301 3.63035 12.2067C3.63035 11.2181 5.10087 10.7168 8.00033 10.7168C10.8998 10.7168 12.3703 11.2228 12.3703 12.2201C12.3703 13.208 10.8998 13.7087 8.00033 13.7087C7.77894 13.7087 7.56091 13.706 7.34624 13.7C7.08863 13.702 6.85919 13.9007 6.85181 14.1647C6.84376 14.4293 7.05307 14.65 7.31873 14.6567Z" fill="#06b7b4"/>
</svg>
