<svg width="20" height="20" viewBox="0 0 20 20" fill="none" xmlns="http://www.w3.org/2000/svg">
<path d="M18.1818 13.9967C17.2975 15.7687 15.8501 17.2021 14.0633 18.0753C12.2766 18.9484 10.25 19.2128 8.29681 18.8276C7.37421 18.6456 6.49226 18.3234 5.6798 17.8776M18.5909 1.46041L18.9141 6.59638C18.9566 7.27175 18.3301 7.79346 17.6736 7.62933L12.4545 6.32457L13.6872 5.23275M18.5909 1.46041L15.926 3.13803C15.048 2.39808 14.0304 1.82619 12.9236 1.46041C11.0341 0.835962 8.99011 0.846992 7.10758 1.49179C5.22504 2.1366 3.60877 3.37926 2.5086 5.02772C1.40843 6.67618 0.885611 8.63863 1.02097 10.6117C1.12111 12.0716 1.57743 13.4772 2.34072 14.7111M18.5909 1.46041L15.9275 3.12178" stroke="#5D6E85" stroke-width="1.5" stroke-linecap="round" stroke-linejoin="round"/>
</svg>
