<svg width="16" height="16" viewBox="0 0 16 16" fill="none" xmlns="http://www.w3.org/2000/svg">
<path fill-rule="evenodd" clip-rule="evenodd" d="M7.08435 1.07902C7.3628 0.91849 7.67857 0.833984 8 0.833984C8.32143 0.833984 8.6372 0.91849 8.91565 1.07902C8.91599 1.07921 8.91633 1.07941 8.91667 1.0796L13.5833 3.74627C13.8136 3.87924 14.0117 4.06037 14.1643 4.27654C14.1982 4.30878 14.2282 4.34635 14.2528 4.38892C14.2743 4.42612 14.2905 4.46493 14.3016 4.50448C14.4315 4.76055 14.4997 5.04403 14.5 5.3321V10.6659C14.4997 10.9874 14.4148 11.3037 14.2539 11.5821C14.093 11.8604 13.8618 12.0915 13.5833 12.2523L13.5814 12.2534L8.91667 14.919C8.91637 14.9191 8.91608 14.9193 8.91578 14.9195C8.71317 15.0363 8.49079 15.1129 8.26085 15.1459C8.18491 15.1925 8.09559 15.2193 8 15.2193C7.90441 15.2193 7.81509 15.1925 7.73915 15.1459C7.50921 15.1129 7.28683 15.0363 7.08422 14.9195C7.08392 14.9193 7.08363 14.9191 7.08333 14.919L2.4186 12.2534L2.41667 12.2523C2.13824 12.0915 1.90698 11.8604 1.74609 11.5821C1.5852 11.3037 1.50033 10.988 1.5 10.6665L1.5 5.33262C1.5003 5.04454 1.56847 4.76056 1.69839 4.50448C1.70949 4.46493 1.72568 4.42612 1.7472 4.38892C1.77182 4.34635 1.80176 4.30877 1.83569 4.27654C1.98832 4.06037 2.18636 3.87924 2.41667 3.74627L2.41859 3.74516L4.61002 2.49292C4.69088 2.39193 4.80573 2.32897 4.92818 2.31111L7.08333 1.0796C7.08367 1.07941 7.08401 1.07921 7.08435 1.07902ZM5.0337 3.40257L3.02495 4.55043L8 7.42832L10.0043 6.26892L5.0337 3.40257ZM11.0036 5.69085L6.03916 2.82802L7.5814 1.94674L7.58333 1.94563C7.71002 1.87249 7.85372 1.83398 8 1.83398C8.14628 1.83398 8.28998 1.87249 8.41667 1.94563L12.9751 4.55043L11.0036 5.69085ZM13.5 5.40202L8.5 8.29435V14.0053L13.0833 11.3863C13.0836 11.3861 13.0831 11.3864 13.0833 11.3863C13.2095 11.3132 13.3152 11.2079 13.3881 11.0816C13.4613 10.9551 13.4999 10.8116 13.5 10.6654V5.40202ZM7.5 14.0053V8.29435L2.5 5.40202V10.6657C2.50019 10.8117 2.53876 10.9552 2.61186 11.0816C2.68484 11.2079 2.78968 11.3128 2.91589 11.3858C2.91615 11.386 2.91563 11.3857 2.91589 11.3858L7.5 14.0053Z" fill="#5D6E85"/>
</svg>
