<svg width="14" height="14" viewBox="0 0 14 14" fill="none" xmlns="http://www.w3.org/2000/svg">
<path fill-rule="evenodd" clip-rule="evenodd" d="M1.33359 8.29928C1.33359 8.56845 1.10959 8.78696 0.83364 8.78696C0.557694 8.78696 0.333691 8.56845 0.333691 8.29928V3.47625C0.333691 1.92706 1.62577 0.666672 3.21457 0.666672H6.37853C7.97057 0.666672 9.26589 1.93022 9.26589 3.48322V4.07287C9.26589 4.34142 9.04189 4.55993 8.76595 4.55993C8.49 4.55993 8.266 4.34142 8.266 4.07287V3.48322C8.266 2.46731 7.41933 1.64204 6.37853 1.64204H3.21457C2.17701 1.64204 1.33359 2.46541 1.33359 3.47625V8.29928ZM8.2658 9.92777C8.2658 9.65859 8.48981 9.44008 8.76575 9.44008C9.0417 9.44008 9.2657 9.65859 9.2657 9.92777V10.5238C9.2657 12.073 7.97362 13.3333 6.38483 13.3333H3.22021C1.62882 13.3333 0.333496 12.0698 0.333496 10.5168C0.333496 10.2476 0.557499 10.0297 0.833445 10.0297C1.10939 10.0297 1.33339 10.2476 1.33339 10.5168C1.33339 11.5327 2.18006 12.358 3.22021 12.358H6.38483C7.42238 12.358 8.2658 11.5352 8.2658 10.5238V9.92777ZM13.629 6.81392C13.5518 6.63088 13.3693 6.51181 13.1667 6.51181H5.36623C5.09028 6.51181 4.86563 6.73095 4.86563 7.00013C4.86563 7.26931 5.09028 7.48782 5.36623 7.48782H11.9565L10.917 8.49739C10.7209 8.6874 10.7209 8.99585 10.9157 9.18712C11.0131 9.28276 11.1416 9.33089 11.2695 9.33089C11.3974 9.33089 11.5247 9.28276 11.6227 9.18839L13.5199 7.34595C13.6628 7.20661 13.7063 6.99633 13.629 6.81392ZM11.748 6.10716C11.6208 6.10716 11.4935 6.05966 11.3961 5.96592L10.9176 5.5042C10.7215 5.31483 10.7202 5.00575 10.9144 4.81511C11.1091 4.62257 11.4247 4.6213 11.6214 4.81131L12.0993 5.27239C12.296 5.4624 12.2973 5.77085 12.1032 5.96212C12.0052 6.05839 11.8766 6.10716 11.748 6.10716Z" fill="#06b7b4"/>
</svg>
