<svg width="171" height="189" viewBox="0 0 171 189" fill="none" xmlns="http://www.w3.org/2000/svg">
<path d="M160.094 113.956C158.588 124.478 155.263 135.028 149.948 144.612C140.655 161.39 125.222 175.324 102.628 181.268C85.2637 185.846 69.4892 185.789 56.0463 182.49C42.0344 179.078 30.5537 172.139 22.3967 163.21C7.16219 146.631 3.38205 123.17 16.2852 102.724C30.9507 79.4902 56.9554 89.8129 76.2253 71.9828C95.0971 54.5222 103.623 27.2222 138.751 49.0054C155.774 59.5841 164.017 86.7133 160.094 113.956Z" fill="#B8F56B"/>
<path d="M119.978 87.3702L117.516 80.4217C117.308 79.9259 117.477 79.3525 117.926 79.0571C119.267 78.1754 123.293 76.7452 130.151 75.6532C130.764 75.5557 131.343 75.9676 131.441 76.5802C131.67 78.0142 132.161 83.0448 132.389 84.4486C132.493 85.0849 132.042 85.6742 131.4 85.7365C129.418 85.929 125.265 86.4858 121.403 87.9824C120.842 88.1997 120.211 87.9246 119.978 87.3702Z" fill="#EAFAFA"/>
<path fill-rule="evenodd" clip-rule="evenodd" d="M118.165 79.4183C117.893 79.5971 117.787 79.9467 117.916 80.2538C117.919 80.2614 117.922 80.2692 117.925 80.277L120.382 87.2124C120.529 87.5481 120.912 87.7081 121.247 87.5785C125.163 86.0608 129.362 85.4993 131.359 85.3054C131.75 85.2673 132.027 84.9086 131.963 84.5175C131.847 83.8018 131.665 82.1781 131.486 80.5731L131.482 80.5347C131.302 78.9284 131.126 77.3462 131.014 76.6477C130.955 76.2761 130.602 76.0196 130.22 76.0802C126.806 76.6238 122.094 77.8485 122.094 77.8485C122.094 77.8485 118.781 79.0135 118.165 79.4183ZM117.113 80.5764C116.833 79.8949 117.066 79.1047 117.689 78.6951C118.414 78.2183 119.806 77.626 121.847 77.0188C123.899 76.4082 126.639 75.7739 130.084 75.2254C130.928 75.0911 131.733 75.6585 131.869 76.5119C131.984 77.2307 132.162 78.8226 132.338 80.4039L132.346 80.4776C132.527 82.0973 132.705 83.6908 132.817 84.3789C132.961 85.2605 132.335 86.0803 131.443 86.1669C129.475 86.3581 125.368 86.9101 121.56 88.3857C120.777 88.6892 119.902 88.3035 119.58 87.5374C119.577 87.5297 119.574 87.522 119.571 87.5142L117.113 80.5764Z" fill="#8692A4"/>
<path d="M125.494 109.919L111.551 114.276C110.554 114.652 109.431 114.275 108.88 113.363C107.234 110.643 104.701 102.564 103.049 88.9015C102.901 87.6813 103.76 86.5643 104.98 86.4165C107.837 86.0706 117.835 85.4718 120.632 85.1239C121.9 84.9661 123.033 85.9035 123.109 87.1789C123.343 91.1181 124.136 99.3839 126.813 107.143C127.201 108.269 126.609 109.498 125.494 109.919Z" fill="#EAFAFA"/>
<path fill-rule="evenodd" clip-rule="evenodd" d="M109.612 112.92C109.945 113.471 110.63 113.707 111.247 113.474C111.263 113.469 111.278 113.463 111.294 113.458L125.211 109.109C125.886 108.842 126.232 108.096 126 107.424C123.286 99.5551 122.486 91.1984 122.251 87.2306C122.205 86.4525 121.515 85.8786 120.736 85.9755C119.31 86.1529 116.081 86.3915 112.889 86.6269L112.813 86.6325C109.619 86.868 106.473 87.1 105.081 87.2685C104.341 87.3581 103.806 88.0393 103.898 88.7986C104.721 95.5996 106.795 105.023 106.795 105.023C106.795 105.023 108.856 111.67 109.612 112.92ZM111.827 115.089C110.456 115.592 108.909 115.072 108.144 113.808C107.254 112.337 106.184 109.537 105.134 105.45C104.077 101.34 103.025 95.867 102.195 89.0054C101.992 87.3244 103.176 85.7714 104.876 85.5656C106.308 85.3922 109.473 85.1588 112.618 84.9269L112.764 84.9161C115.985 84.6786 119.154 84.4438 120.525 84.2732C122.281 84.0547 123.858 85.3555 123.963 87.1281C124.195 91.0388 124.983 99.2137 127.622 106.864C128.164 108.437 127.336 110.141 125.794 110.722C125.779 110.728 125.764 110.733 125.748 110.738L111.827 115.089Z" fill="#5D6E85"/>
<path d="M138.682 68.5755L135.163 66.0122C134.921 65.8216 134.529 65.6977 134.229 65.7191C133.333 65.783 131.376 66.3227 128.853 67.6258C128.627 67.7422 128.718 67.9963 129.061 68.1941C129.863 68.6573 132.762 70.2091 133.546 70.6637C133.902 70.8697 134.38 70.9317 134.592 70.7984C135.247 70.3867 136.712 69.5678 138.664 69.0857C138.947 69.0157 138.953 68.7886 138.682 68.5755Z" fill="#EAFAFA"/>
<path fill-rule="evenodd" clip-rule="evenodd" d="M134.38 65.8776C134.562 65.8647 134.801 65.9395 134.951 66.0576C134.955 66.0605 134.959 66.0634 134.963 66.0663L138.475 68.6247C138.638 68.7553 138.63 68.8911 138.461 68.9329C136.481 69.4217 135.001 70.25 134.341 70.6647C134.211 70.746 133.92 70.7087 133.702 70.5821C133.302 70.3503 132.372 69.844 131.454 69.3437L131.432 69.3317C130.512 68.8309 129.606 68.3376 129.216 68.112C129.008 67.9919 128.949 67.8355 129.089 67.763C130.346 67.1144 132.365 66.3545 132.365 66.3545C132.365 66.3545 133.969 65.907 134.38 65.8776ZM135.364 65.9606C135.029 65.7001 134.49 65.5294 134.073 65.5591C133.589 65.5936 132.853 65.7522 131.932 66.0594C131.006 66.3684 129.879 66.8324 128.611 67.4868C128.301 67.6472 128.424 67.9988 128.901 68.2745C129.303 68.5067 130.215 69.003 131.12 69.496L131.162 69.5189C132.089 70.0239 133.001 70.5208 133.386 70.7436C133.878 71.0291 134.543 71.1157 134.837 70.9305C135.488 70.5218 136.937 69.7123 138.862 69.237C139.258 69.1392 139.264 68.8232 138.89 68.5286C138.886 68.5257 138.882 68.5228 138.878 68.5199L135.364 65.9606Z" fill="#AEB7C2"/>
<path d="M128.06 50.388L124.566 52.9859C124.312 53.1604 124.077 53.4975 124.009 53.7905C123.803 54.665 123.737 56.6939 124.23 59.4906C124.274 59.7403 124.544 59.7293 124.835 59.4609C125.516 58.8326 127.859 56.5263 128.526 55.9128C128.829 55.6347 129.03 55.1969 128.966 54.9548C128.768 54.2069 128.421 52.5647 128.542 50.5572C128.559 50.2658 128.344 50.1928 128.06 50.388Z" fill="#EAFAFA"/>
<path fill-rule="evenodd" clip-rule="evenodd" d="M124.205 53.6921C124.246 53.5147 124.389 53.3083 124.546 53.2001C124.55 53.1974 124.554 53.1946 124.558 53.1917L128.045 50.5988C128.218 50.4826 128.345 50.5304 128.335 50.7042C128.213 52.74 128.564 54.3997 128.763 55.1529C128.803 55.3006 128.68 55.5678 128.494 55.7387C128.154 56.0514 127.395 56.7883 126.644 57.5167L126.626 57.5341C125.874 58.2632 125.134 58.9813 124.802 59.2873C124.626 59.4501 124.459 59.4594 124.431 59.304C124.186 57.9118 124.061 55.7575 124.061 55.7575C124.061 55.7575 124.11 54.0936 124.205 53.6921ZM124.576 52.7771C124.228 53.0193 123.905 53.4838 123.809 53.89C123.698 54.3629 123.631 55.1123 123.65 56.0831C123.67 57.0593 123.778 58.2738 124.026 59.6784C124.086 60.0225 124.459 60.0096 124.864 59.6357C125.205 59.3208 125.95 58.5983 126.69 57.8806L126.724 57.8472C127.482 57.1121 128.228 56.389 128.555 56.0883C128.974 55.7031 129.254 55.0945 129.165 54.7579C128.968 54.0155 128.626 52.3906 128.745 50.4114C128.769 50.0042 128.469 49.9051 128.077 50.1749C128.073 50.1776 128.069 50.1804 128.065 50.1833L124.576 52.7771Z" fill="#D7DBE1"/>
<path d="M77.9008 86.8289L115.302 98.6349C118.076 99.338 119.969 101.894 119.785 104.75C119.233 113.272 112.404 134.968 95.0613 167.617C93.5125 170.532 89.9052 171.675 86.9908 170.127C80.1677 166.503 57.2268 152.47 50.5324 148.942C47.4976 147.342 46.4412 143.536 48.233 140.609C53.7675 131.568 64.7136 112.132 70.7347 90.9215C71.6086 87.843 74.7995 86.0427 77.9008 86.8289Z" fill="#EAFAFA"/>
<path fill-rule="evenodd" clip-rule="evenodd" d="M118.366 104.659C118.506 102.499 117.074 100.551 114.952 100.013C114.926 100.006 114.899 99.9984 114.873 99.9902L77.5134 88.1974C75.1551 87.6201 72.7579 88.9975 72.1017 91.3088C66.0283 112.704 55.0041 132.269 49.4449 141.351C48.0842 143.573 48.8823 146.465 51.1953 147.684C54.5831 149.469 62.0345 153.885 69.4384 158.275L69.6488 158.4C77.0225 162.772 84.316 167.097 87.6578 168.872L86.9905 170.127L87.6579 168.872C89.865 170.044 92.6179 169.186 93.8057 166.95C102.453 150.671 108.469 137.142 112.388 126.64C116.32 116.101 118.104 108.705 118.366 104.659ZM115.694 97.2676C119.096 98.1509 121.432 101.304 121.203 104.841L121.203 104.841C120.913 109.317 119.007 117.03 115.051 127.632C111.082 138.27 105.011 151.914 96.3162 168.283C94.4065 171.878 89.9447 173.306 86.3231 171.382C82.9215 169.576 75.5996 165.234 68.2964 160.904L67.9875 160.721C60.5417 156.306 53.1754 151.942 49.8688 150.199L50.532 148.942L49.8688 150.199C46.1123 148.219 44.7975 143.499 47.0204 139.868C52.5302 130.867 63.3982 111.56 69.3669 90.5339C70.4552 86.7003 74.4181 84.4794 78.2505 85.451C78.2769 85.4577 78.303 85.4651 78.329 85.4733L115.694 97.2676ZM110.895 110.638C110.644 111.382 109.838 111.783 109.094 111.532C104.566 110.009 86.837 104.627 78.5134 102.12C77.7618 101.893 77.3365 101.101 77.5633 100.349C77.7901 99.5972 78.5832 99.1714 79.3348 99.3978C87.631 101.897 105.419 107.296 110.002 108.838C110.746 109.088 111.146 109.894 110.895 110.638ZM91.6412 117.891C85.5661 115.553 78.4318 113.069 73.716 111.497C72.9714 111.248 72.5694 110.443 72.8181 109.699C73.0668 108.954 73.8721 108.551 74.6167 108.8C79.3571 110.381 86.535 112.879 92.6638 115.238C95.7248 116.417 98.5473 117.569 100.679 118.561C101.742 119.055 102.664 119.523 103.367 119.946C103.718 120.157 104.042 120.373 104.312 120.592C104.551 120.786 104.878 121.085 105.081 121.485C105.436 122.185 105.157 123.04 104.456 123.396C103.79 123.734 102.983 123.497 102.6 122.87C102.584 122.855 102.559 122.832 102.52 122.8C102.392 122.696 102.19 122.557 101.901 122.382C101.323 122.035 100.505 121.615 99.4795 121.138C97.4345 120.187 94.6821 119.062 91.6412 117.891ZM100.262 134.072C99.7604 134.677 98.8642 134.76 98.2603 134.259C97.531 133.653 95.9344 132.706 93.6843 131.532C91.4767 130.379 88.7561 129.067 85.8736 127.73C80.1106 125.058 73.7478 122.312 69.6498 120.601C68.9255 120.299 68.5839 119.467 68.8867 118.742C69.1895 118.018 70.0222 117.676 70.7465 117.978C74.868 119.699 81.2658 122.459 87.0707 125.151C89.9722 126.496 92.7375 127.83 95.0009 129.011C97.2218 130.171 99.0815 131.245 100.077 132.071C100.681 132.572 100.764 133.468 100.262 134.072ZM93.3147 147.057C92.7112 147.559 91.815 147.478 91.3129 146.875C90.764 146.215 89.3918 145.123 87.3353 143.721C85.3321 142.356 82.8232 140.791 80.1421 139.192C74.7823 135.995 68.7932 132.695 64.9163 130.634C64.2233 130.265 63.9605 129.405 64.3293 128.712C64.6982 128.018 65.559 127.755 66.252 128.124C70.1573 130.2 76.189 133.523 81.5994 136.75C84.3034 138.363 86.867 139.961 88.9374 141.372C90.9545 142.747 92.6571 144.045 93.4982 145.055C94.0003 145.658 93.9182 146.554 93.3147 147.057ZM88.0461 156.36C87.4426 156.862 86.5463 156.78 86.0442 156.177C85.5299 155.559 84.1623 154.453 82.0867 152.992C80.0671 151.569 77.5217 149.908 74.795 148.194C69.3439 144.766 63.2205 141.159 59.2471 138.885C58.5659 138.495 58.3301 137.626 58.7203 136.945C59.1106 136.264 59.9792 136.027 60.6603 136.417C64.6569 138.705 70.8158 142.333 76.3092 145.787C79.0547 147.513 81.647 149.204 83.7245 150.667C85.7459 152.091 87.4345 153.403 88.2295 154.358C88.7316 154.961 88.6495 155.857 88.0461 156.36Z" fill="#354A67"/>
</svg>
