<svg width="171" height="189" viewBox="0 0 171 189" fill="none" xmlns="http://www.w3.org/2000/svg">
<path d="M160.094 113.956C158.588 124.478 155.263 135.028 149.948 144.612C140.655 161.39 125.222 175.324 102.628 181.268C85.2637 185.846 69.4892 185.789 56.0463 182.49C42.0344 179.078 30.5537 172.139 22.3967 163.21C7.16219 146.631 3.38205 123.17 16.2852 102.724C30.9507 79.4902 56.9553 89.8129 76.2253 71.9828C95.0971 54.5222 103.623 27.2222 138.751 49.0054C155.774 59.5841 164.017 86.7133 160.094 113.956Z" fill="#D5F6F5"/>
<path d="M155.338 85.4019C151.83 108.546 127.715 124.081 101.474 120.1C75.234 116.118 56.8051 94.1289 60.3125 70.9846C63.8198 47.8403 87.9352 32.3055 114.176 36.2868C140.416 40.268 158.845 62.2576 155.338 85.4019Z" fill="#5D6E85"/>
<path fill-rule="evenodd" clip-rule="evenodd" d="M113.837 38.527C88.5585 34.6918 65.8318 49.6746 62.5509 71.325C59.2699 92.9754 76.5361 114.026 101.814 117.861C127.092 121.696 149.819 106.714 153.1 85.0632C156.381 63.4127 139.115 42.3622 113.837 38.527ZM58.0747 70.6459C61.8084 46.0077 87.3124 29.921 114.515 34.0482C141.718 38.1754 161.31 61.1041 157.576 85.7423C153.842 110.38 128.338 126.467 101.135 122.34C73.9325 118.213 54.341 95.2841 58.0747 70.6459Z" fill="#354A67"/>
<path d="M155.338 85.4028C158.845 62.2585 140.416 40.2689 114.176 36.2877C90.5925 32.7096 68.7255 44.8954 61.9929 64.2016C69.5455 55.0667 72.8511 43.0179 108.583 45.6166C132.677 47.3689 147.201 63.824 146.911 85.4028C146.802 93.5613 145.334 98.5013 141.087 105.467C138.379 109.908 132.351 115.52 132.351 115.52C144.486 109.509 153.321 98.7144 155.338 85.4028Z" fill="#AEB7C2"/>
<path fill-rule="evenodd" clip-rule="evenodd" d="M72.4875 50.2804C72.9622 49.944 73.4579 49.6157 73.9771 49.2969C80.5788 45.2438 90.6869 42.8893 108.685 44.1983C121.039 45.0968 131.044 49.7771 137.926 57.1006C144.808 64.4244 148.481 74.2998 148.332 85.4217C148.276 89.5845 147.873 92.9948 146.914 96.2802C145.957 99.5645 144.464 102.658 142.3 106.207C141.922 106.827 141.485 107.465 141.014 108.104C147.854 102.198 152.553 94.2908 153.933 85.1895C157.298 62.9829 139.599 41.5828 113.963 37.6933C97.6909 35.2245 82.3625 40.4517 72.4875 50.2804ZM131.383 114.479L131.383 114.479L131.386 114.477L131.397 114.466C131.408 114.456 131.424 114.441 131.445 114.421C131.473 114.394 131.51 114.36 131.555 114.317C131.579 114.294 131.606 114.268 131.635 114.241C131.801 114.083 132.042 113.851 132.34 113.558C132.938 112.973 133.762 112.146 134.669 111.183C136.503 109.238 138.601 106.813 139.874 104.726C141.957 101.309 143.321 98.4504 144.186 95.4837C145.051 92.5181 145.436 89.3792 145.49 85.3836C145.63 74.9267 142.186 65.7851 135.855 59.0486C129.524 52.3117 120.22 47.8883 108.479 47.0345C90.746 45.7448 81.3356 48.1154 75.4635 51.7207C72.5256 53.5245 70.4038 55.6788 68.5359 57.9757C67.6226 59.0987 66.7774 60.2461 65.916 61.4156L65.8412 61.5171C64.9608 62.7123 64.0606 63.9307 63.0874 65.1077C62.649 65.6381 61.8938 65.778 61.2946 65.4399C60.6954 65.1018 60.4243 64.3828 60.6509 63.733C67.6453 43.6762 90.2447 31.2186 114.389 34.8818C141.233 38.9546 160.392 61.5337 156.743 85.6158C154.646 99.4491 145.472 110.607 132.981 116.794C132.349 117.108 131.583 116.909 131.182 116.328C130.781 115.748 130.866 114.96 131.383 114.479" fill="#354A67"/>
<mask id="mask0" mask-type="alpha" maskUnits="userSpaceOnUse" x="8" y="40" width="154" height="145">
<path d="M160.094 113.956C158.588 124.478 155.263 135.028 149.948 144.612C140.655 161.39 125.222 175.324 102.628 181.268C85.2637 185.846 69.4892 185.789 56.0463 182.49C42.0344 179.078 30.5537 172.139 22.3967 163.21C7.16219 146.631 3.38205 123.17 16.2852 102.724C30.9507 79.4902 56.9553 89.8129 76.2253 71.9828C95.0971 54.5222 103.623 27.2222 138.751 49.0054C155.774 59.5841 164.017 86.7133 160.094 113.956Z" fill="#D7DBE1"/>
</mask>
<g mask="url(#mask0)">
<path d="M75.0544 212.092C136.288 207.814 166.429 178.702 166.429 178.702L136.207 85.9348C122.951 74.6755 46.1718 98.3268 37.9062 125.074L75.0544 212.092Z" fill="#5D6E85"/>
<path fill-rule="evenodd" clip-rule="evenodd" d="M128.768 81.0352C132.314 81.4319 135.504 82.3657 137.672 84.2074C137.992 84.4787 138.23 84.8335 138.359 85.2322L168.582 178C168.85 178.824 168.625 179.729 168.002 180.331L166.429 178.702C168.002 180.331 168.001 180.332 168 180.333L167.997 180.335L167.99 180.342C167.984 180.348 167.977 180.355 167.967 180.364C167.949 180.382 167.922 180.407 167.889 180.438C167.821 180.501 167.725 180.591 167.598 180.706C167.345 180.936 166.973 181.267 166.482 181.685C165.501 182.522 164.044 183.708 162.108 185.139C158.237 188 152.453 191.839 144.739 195.807C129.308 203.744 106.168 212.188 75.2121 214.351C73.9649 214.438 72.8833 213.497 72.7962 212.249C72.7091 211.001 73.6496 209.919 74.8967 209.832C105.175 207.717 127.722 199.466 142.67 191.778C150.146 187.932 155.724 184.226 159.418 181.495C161.265 180.13 162.641 179.009 163.547 178.237C163.643 178.154 163.735 178.076 163.82 178.002L134.274 87.3099C133.06 86.4996 131.09 85.8532 128.265 85.5372C125.106 85.1839 121.17 85.2742 116.675 85.7886C107.693 86.8166 96.7666 89.5039 85.949 93.3835C75.1305 97.2633 64.5265 102.298 56.1575 107.966C48.0643 113.447 42.4032 119.292 40.3269 124.977L49.275 145.938C49.7661 147.088 49.2322 148.419 48.0825 148.91C46.9328 149.402 45.6027 148.868 45.1116 147.717L35.8245 125.963C35.6138 125.469 35.5851 124.917 35.7436 124.404C38.0456 116.955 44.9414 110.092 53.6198 104.215C62.3858 98.2775 73.3549 93.088 84.4215 89.1191C95.4889 85.1499 106.76 82.3638 116.16 81.288C120.857 80.7505 125.158 80.6314 128.768 81.0352Z" fill="#354A67"/>
</g>
<path d="M58.8138 86.0195L91.8175 64.8297C94.1324 63.1483 97.3085 63.3285 99.3849 65.2974C105.582 71.1743 117.885 90.3041 131.88 124.522C133.13 127.578 131.7 131.081 128.646 132.331C121.495 135.255 96.0317 143.907 89.0372 146.794C85.8664 148.103 82.2654 146.48 81.1624 143.23C77.7554 133.192 69.8223 112.344 57.3739 94.1454C55.5672 91.504 56.2253 87.8999 58.8138 86.0195Z" fill="#EAFAFA"/>
<path fill-rule="evenodd" clip-rule="evenodd" d="M98.407 66.3304C96.8365 64.8412 94.4233 64.6948 92.652 65.9814C92.63 65.9974 92.6075 66.0127 92.5846 66.0274L59.6175 87.1937C57.665 88.6367 57.1897 91.3604 58.5462 93.3435C71.1028 111.7 79.0853 132.691 82.5075 142.774C83.3452 145.242 86.0781 146.479 88.4947 145.481C92.0344 144.02 100.196 141.119 108.307 138.238L108.537 138.156C116.615 135.286 124.605 132.448 128.108 131.016L128.645 132.332L128.108 131.016C130.421 130.07 131.523 127.405 130.565 125.062C123.586 107.999 117.038 94.7199 111.475 84.9888C105.891 75.2236 101.349 69.1208 98.407 66.3304ZM91.0171 63.6551C93.8726 61.6058 97.7901 61.8278 100.362 64.2666L100.362 64.2666C103.617 67.353 108.325 73.7536 113.941 83.5769C119.577 93.4344 126.178 106.829 133.195 123.985C134.736 127.753 132.979 132.095 129.183 133.648C125.618 135.106 117.597 137.955 109.596 140.797L109.258 140.917C101.101 143.815 93.0337 146.683 89.5789 148.11L89.0368 146.795L89.5789 148.11C85.654 149.73 81.1848 147.72 79.8164 143.688C76.4247 133.695 68.5409 112.99 56.2008 94.9494C53.9509 91.6602 54.7797 87.1936 57.9785 84.87C58.0005 84.854 58.023 84.8387 58.0459 84.824L91.0171 63.6551ZM98.2222 75.8981C98.6335 76.5669 98.4252 77.4426 97.7568 77.8541C93.6889 80.3587 78.2097 90.5407 70.957 95.3332C70.3021 95.7659 69.4206 95.5855 68.9881 94.9303C68.5555 94.275 68.7358 93.3931 69.3906 92.9603C76.6195 88.1836 92.1498 77.9674 96.2672 75.4323C96.9356 75.0208 97.8109 75.2293 98.2222 75.8981ZM91.4772 95.3354C85.7929 98.5079 79.3195 102.402 75.0936 105.02C74.4263 105.433 73.5505 105.227 73.1373 104.559C72.7241 103.892 72.9301 103.015 73.5973 102.602C77.8453 99.9703 84.3581 96.0525 90.0925 92.852C92.9566 91.2535 95.6482 89.8217 97.7745 88.8175C98.8342 88.3171 99.7837 87.9084 100.559 87.6386C100.945 87.5041 101.319 87.3932 101.66 87.326C101.962 87.2664 102.401 87.2058 102.838 87.3058C103.603 87.4808 104.082 88.2432 103.907 89.0087C103.741 89.7375 103.042 90.2063 102.315 90.0986C102.294 90.1012 102.259 90.1062 102.21 90.1159C102.049 90.1477 101.812 90.2132 101.493 90.3244C100.856 90.5459 100.011 90.9059 98.9877 91.3891C96.9484 92.3522 94.3224 93.7474 91.4772 95.3354ZM109.429 99.0634C109.572 99.8355 109.062 100.578 108.291 100.721C107.359 100.894 105.61 101.515 103.267 102.493C100.969 103.452 98.2196 104.703 95.3482 106.063C89.6072 108.782 83.4261 111.916 79.4891 113.97C78.7933 114.333 77.935 114.063 77.572 113.367C77.209 112.671 77.4789 111.812 78.1747 111.449C82.1344 109.382 88.3493 106.232 94.132 103.493C97.0224 102.124 99.8166 100.852 102.173 99.8684C104.485 98.9034 106.5 98.1614 107.772 97.9251C108.543 97.7818 109.285 98.2914 109.429 99.0634ZM114.962 112.71C114.962 113.496 114.326 114.132 113.541 114.132C112.683 114.132 110.966 114.488 108.573 115.171C106.242 115.837 103.434 116.764 100.49 117.802C94.6034 119.875 88.2351 122.366 84.1705 124.027C83.4439 124.324 82.6144 123.975 82.3177 123.248C82.0209 122.521 82.3694 121.691 83.096 121.394C87.1904 119.721 93.6038 117.212 99.5456 115.119C102.515 114.073 105.383 113.125 107.792 112.437C110.14 111.766 112.227 111.289 113.541 111.289C114.326 111.289 114.962 111.925 114.962 112.71ZM118.74 122.712C118.74 123.497 118.104 124.133 117.319 124.133C116.515 124.133 114.79 124.477 112.339 125.137C109.954 125.779 107.048 126.672 103.986 127.67C97.8645 129.667 91.1742 132.064 86.8842 133.663C86.1487 133.937 85.3304 133.563 85.0565 132.827C84.7826 132.091 85.1567 131.272 85.8922 130.998C90.2072 129.39 96.9361 126.979 103.105 124.967C106.189 123.961 109.147 123.051 111.6 122.391C113.988 121.748 116.077 121.29 117.319 121.29C118.104 121.29 118.74 121.926 118.74 122.712Z" fill="#354A67"/>
<path d="M60.5302 49.2666L44.2345 67.1706C43.1227 68.5427 41.2005 68.9429 39.6487 68.101C35.0173 65.5884 24.6321 56.152 10.8325 37.9926C9.60012 36.3708 9.89365 34.054 11.5154 32.8214C15.312 29.9354 29.1119 20.7099 32.8211 17.8711C34.5026 16.5842 36.9082 16.9764 38.084 18.7373C41.7158 24.1761 49.7696 35.3349 60.0927 44.1931C61.591 45.4788 61.7734 47.7322 60.5302 49.2666Z" fill="#D5F6F5"/>
<path fill-rule="evenodd" clip-rule="evenodd" d="M40.3264 66.8517C41.2655 67.3611 42.4419 67.126 43.1307 66.2759C43.1479 66.2548 43.1656 66.2342 43.1839 66.214L59.4488 48.3439C60.1921 47.3967 60.0613 46.0399 59.1674 45.2729C48.6989 36.2899 40.5604 25.006 36.9023 19.5277C36.185 18.4535 34.7179 18.2099 33.6845 19.0008C31.7934 20.4481 27.3748 23.492 23.0067 26.5001L22.9021 26.5721C18.5304 29.5827 14.2243 32.5481 12.375 33.9538L11.5154 32.8219L12.375 33.9539C11.391 34.7018 11.197 36.1233 11.9639 37.1325C18.8331 46.1719 24.8389 53.0222 29.6879 57.9136C34.5645 62.8329 38.1997 65.6979 40.3264 66.8517ZM45.3105 68.1004C43.7714 69.9672 41.1227 70.5185 38.9712 69.3514L38.9712 69.3514C36.4664 67.9925 32.5933 64.883 27.6696 59.9161C22.7182 54.9213 16.6316 47.9737 9.7012 38.8537C8.00337 36.6194 8.39643 33.4073 10.6559 31.6899C12.5589 30.2433 16.8914 27.2597 21.1951 24.296L21.3955 24.158C25.8037 21.1222 30.1397 18.134 31.9579 16.7425C34.2874 14.9596 37.6315 15.5005 39.2658 17.9478C42.8713 23.3472 50.8405 34.381 61.0181 43.1144C63.1119 44.9111 63.3523 48.0417 61.6341 50.1623C61.617 50.1834 61.5992 50.2041 61.5809 50.2242L45.3105 68.1004ZM38.2775 61.9935C37.7073 61.454 37.6823 60.5542 38.2216 59.9836C40.2395 57.8489 47.8358 49.3152 51.3988 45.2956C51.9196 44.7081 52.8178 44.6541 53.405 45.175C53.9921 45.6959 54.0459 46.5945 53.5251 47.182C49.9811 51.1802 42.3444 59.7601 40.2864 61.9371C39.7471 62.5077 38.8476 62.5329 38.2775 61.9935ZM39.1937 48.5439C42.0685 45.7523 45.3005 42.4034 47.3989 40.1713C47.9366 39.5992 48.836 39.5715 49.4077 40.1094C49.9794 40.6472 50.0068 41.547 49.4691 42.1191C47.353 44.3701 44.0891 47.7523 41.1731 50.584C39.7176 51.9974 38.3311 53.2909 37.2097 54.2411C36.6518 54.7138 36.1341 55.1232 35.6917 55.4237C35.4716 55.5732 35.2432 55.7143 35.0192 55.8243C34.8308 55.9168 34.4947 56.0653 34.1004 56.0799C33.3161 56.109 32.6568 55.4965 32.6279 54.7118C32.6016 53.998 33.1061 53.3876 33.788 53.2613C33.8505 53.2288 33.9514 53.1692 34.0956 53.0713C34.4165 52.8534 34.8462 52.5178 35.3731 52.0714C36.4212 51.1834 37.7538 49.9422 39.1937 48.5439ZM33.7315 53.2876C33.7316 53.2873 33.7375 53.2846 33.7487 53.2806C33.7369 53.286 33.7314 53.288 33.7315 53.2876ZM27.7856 49.8153C27.4476 49.1067 27.7479 48.2581 28.4563 47.9198C28.9245 47.6962 29.8251 47.0821 31.0705 46.1212C32.278 45.1895 33.7104 44.0107 35.2022 42.7438C38.1843 40.2113 41.3639 37.3609 43.3797 35.5105C43.9581 34.9796 44.857 35.0181 45.3876 35.5967C45.9181 36.1752 45.8794 37.0745 45.301 37.6054C43.2664 39.4732 40.0585 42.349 37.0412 44.9114C35.5334 46.1919 34.0633 47.4026 32.806 48.3727C31.5867 49.3135 30.4604 50.1133 29.6801 50.4859C28.9718 50.8242 28.1236 50.5239 27.7856 49.8153ZM22.276 42.4716C22.073 41.7132 22.5231 40.9336 23.2813 40.7304C23.7082 40.616 24.6132 40.1705 25.9385 39.376C27.2086 38.6146 28.7244 37.6203 30.3101 36.5344C33.4791 34.3642 36.8707 31.8673 39.0241 30.2317C39.6492 29.7568 40.5407 29.8788 41.0152 30.5042C41.4897 31.1295 41.3676 32.0214 40.7424 32.4963C38.5634 34.1513 35.1328 36.6772 31.9151 38.8807C30.3075 39.9816 28.7389 41.0118 27.3991 41.815C26.1145 42.5851 24.8843 43.2443 24.0162 43.477C23.258 43.6802 22.4789 43.2301 22.276 42.4716ZM18.4288 37.1141C18.2259 36.3557 18.676 35.5761 19.4341 35.3729C19.8322 35.2662 20.7442 34.8252 22.1113 34.0338C23.4191 33.2767 24.9997 32.2858 26.6624 31.2036C29.9854 29.0408 33.585 26.547 35.8833 24.9116C36.523 24.4565 37.4102 24.6062 37.865 25.246C38.3198 25.8859 38.1699 26.7735 37.5303 27.2287C35.2102 28.8795 31.577 31.3968 28.212 33.587C26.5307 34.6813 24.9034 35.7023 23.5344 36.4949C22.2246 37.2531 20.9909 37.8992 20.169 38.1195C19.4109 38.3227 18.6317 37.8726 18.4288 37.1141Z" fill="#5D6E85"/>
<mask id="mask1" mask-type="alpha" maskUnits="userSpaceOnUse" x="8" y="40" width="154" height="145">
<path d="M160.095 113.956C158.589 124.478 155.264 135.028 149.949 144.612C140.656 161.39 125.223 175.324 102.629 181.268C85.2646 185.846 69.4902 185.789 56.0473 182.49C42.0354 179.078 30.5547 172.139 22.3977 163.21C7.16317 146.631 3.38303 123.17 16.2862 102.724C30.9517 79.4902 56.9563 89.8129 76.2263 71.9828C95.098 54.5222 103.624 27.2222 138.752 49.0054C155.775 59.5841 164.018 86.7133 160.095 113.956Z" fill="#D7DBE1"/>
</mask>
<g mask="url(#mask1)">
<path d="M78.8337 227.528L37.9077 126.098C36.9797 123.359 39.1501 120.625 42.0346 120.811C61.5164 133.126 130.301 103.489 130.967 85.7734C133.14 84.7855 135.681 85.8772 136.445 88.1406L172.972 196.46" fill="#AEB7C2"/>
<path fill-rule="evenodd" clip-rule="evenodd" d="M132.98 87.7062C133.575 87.8231 134.091 88.2449 134.3 88.8645L170.827 197.184C171.227 198.37 172.511 199.006 173.696 198.606C174.88 198.206 175.517 196.921 175.117 195.736L138.59 87.4162C137.394 83.8713 133.414 82.1731 130.03 83.7109C129.25 84.0656 128.737 84.831 128.705 85.6881C128.647 87.2077 127.83 89.1464 125.985 91.4559C124.166 93.7326 121.513 96.1633 118.182 98.6336C111.526 103.57 102.434 108.465 92.6983 112.458C82.9653 116.449 72.7029 119.49 63.7333 120.781C54.6179 122.092 47.3835 121.513 43.2436 118.896C42.9235 118.694 42.5579 118.575 42.1801 118.551C37.7511 118.265 34.2981 122.498 35.7638 126.825C35.7776 126.866 35.7926 126.906 35.8086 126.946L76.7347 228.376C77.2027 229.536 78.5219 230.096 79.6812 229.628C80.8405 229.16 81.4008 227.84 80.9328 226.68L40.0357 125.322C39.7282 124.32 40.3758 123.271 41.4376 123.093C47.0469 126.288 55.4276 126.553 64.3777 125.265C73.8053 123.908 84.4336 120.742 94.4152 116.649C104.394 112.557 113.841 107.492 120.878 102.273C124.393 99.666 127.375 96.9711 129.522 94.2843C131.191 92.1946 132.462 89.9755 132.98 87.7062Z" fill="#354A67"/>
<path opacity="0.1" fill-rule="evenodd" clip-rule="evenodd" d="M58.6226 133.119C59.7023 132.649 60.9579 133.145 61.4269 134.225L96.3714 214.707C96.8405 215.788 96.3454 217.044 95.2657 217.513C94.186 217.983 92.9304 217.487 92.4614 216.407L57.5169 135.925C57.0478 134.844 57.5429 133.588 58.6226 133.119Z" fill="#1B2534"/>
<path opacity="0.1" fill-rule="evenodd" clip-rule="evenodd" d="M84.1723 133.041C85.2948 132.686 86.4923 133.309 86.8471 134.432L112.819 216.647C113.174 217.77 112.552 218.968 111.429 219.323C110.307 219.678 109.109 219.056 108.755 217.933L82.7823 135.718C82.4275 134.594 83.0498 133.396 84.1723 133.041Z" fill="#1B2534"/>
<path opacity="0.1" fill-rule="evenodd" clip-rule="evenodd" d="M104.49 123.644C105.584 123.208 106.823 123.743 107.258 124.837L140.943 209.572C141.378 210.667 140.844 211.907 139.751 212.342C138.657 212.778 137.417 212.243 136.982 211.149L103.297 126.414C102.862 125.319 103.396 124.079 104.49 123.644Z" fill="#1B2534"/>
<path opacity="0.1" fill-rule="evenodd" clip-rule="evenodd" d="M127.937 110.833C129.06 110.48 130.256 111.106 130.608 112.229L158.155 200.115C158.507 201.238 157.882 202.435 156.759 202.788C155.635 203.14 154.439 202.515 154.087 201.391L126.541 113.506C126.188 112.382 126.813 111.185 127.937 110.833Z" fill="#1B2534"/>
</g>
</svg>
