<svg width="98" height="60" viewBox="0 0 98 60" fill="none" xmlns="http://www.w3.org/2000/svg">
<path d="M12.6998 49.7834C12.6998 50.7057 12.5461 51.563 12.2387 52.3553C11.9312 53.1475 11.5055 53.8334 10.9616 54.4128C10.4176 54.9804 9.76137 55.4297 8.99276 55.7608C8.23597 56.0801 7.41415 56.2397 6.52729 56.2397C5.61678 56.2397 4.75948 56.0742 3.95539 55.7431C3.16313 55.412 2.47138 54.9626 1.88014 54.3951C1.30073 53.8156 0.839561 53.1357 0.496641 52.3553C0.165547 51.5748 0 50.7353 0 49.8366C0 48.9379 0.165547 48.0984 0.496641 47.3179C0.839561 46.5375 1.30073 45.8635 1.88014 45.2959C2.45956 44.7165 3.1454 44.2612 3.93766 43.9301C4.72992 43.599 5.57539 43.4335 6.47408 43.4335C7.50283 43.4335 8.48429 43.6463 9.41845 44.072C10.3526 44.4859 11.1094 45.0771 11.6888 45.8457L9.54261 47.7081C9.15239 47.1878 8.69123 46.7976 8.15911 46.5375C7.63882 46.2773 7.07714 46.1473 6.47408 46.1473C6.00108 46.1473 5.55765 46.2419 5.14379 46.4311C4.74174 46.6203 4.39291 46.8804 4.09729 47.2115C3.80167 47.5308 3.57109 47.921 3.40554 48.3821C3.23999 48.8315 3.15722 49.3163 3.15722 49.8366C3.15722 50.3687 3.23999 50.8654 3.40554 51.3265C3.58291 51.7759 3.82532 52.1661 4.13277 52.4972C4.44021 52.8283 4.80087 53.0884 5.21474 53.2776C5.64043 53.4668 6.09568 53.5614 6.5805 53.5614C7.27816 53.5614 7.88123 53.3663 8.38969 52.9761C8.90998 52.5859 9.2529 52.0892 9.41845 51.4862H6.31444V48.9143H12.6998V49.7834Z" fill="white"/>
<path d="M17.412 46.8922V52.2311C17.412 52.7396 17.548 53.1535 17.8199 53.4727C18.1037 53.7802 18.4762 53.9339 18.9374 53.9339C19.2448 53.9339 19.5227 53.8748 19.771 53.7565C20.0312 53.6264 20.2617 53.4313 20.4628 53.1712V46.8922H23.3362V56.0446H20.4628V54.5547C20.108 55.0868 19.6823 55.4948 19.1857 55.7786C18.7009 56.0505 18.1628 56.1865 17.5716 56.1865C16.6847 56.1865 15.9575 55.8968 15.3899 55.3174C14.8223 54.7262 14.5385 53.9753 14.5385 53.0648V46.8922H17.412Z" fill="white"/>
<path d="M27.0107 45.4732C26.5614 45.4732 26.1771 45.3195 25.8578 45.0121C25.5503 44.6928 25.3966 44.3144 25.3966 43.8769C25.3966 43.4394 25.5562 43.061 25.8755 42.7417C26.1948 42.4225 26.5732 42.2628 27.0107 42.2628C27.4482 42.2628 27.8266 42.4225 28.1459 42.7417C28.477 43.061 28.6425 43.4394 28.6425 43.8769C28.6425 44.3144 28.4829 44.6928 28.1636 45.0121C27.8562 45.3195 27.4719 45.4732 27.0107 45.4732ZM28.4474 46.8922V56.0446H25.574V46.8922H28.4474Z" fill="white"/>
<path d="M30.6838 56.0446V43.3625L33.5572 42.9191V48.3821C33.912 47.85 34.3318 47.448 34.8166 47.176C35.3132 46.8922 35.8572 46.7503 36.4484 46.7503C37.3353 46.7503 38.0625 47.0459 38.6301 47.6372C39.1977 48.2166 39.4815 48.9616 39.4815 49.8721V56.0446H36.608V50.7057C36.608 50.1973 36.4661 49.7893 36.1824 49.4819C35.9104 49.1626 35.5438 49.003 35.0826 49.003C34.7752 49.003 34.4914 49.068 34.2313 49.1981C33.9829 49.3163 33.7583 49.5055 33.5572 49.7657V56.0446H30.6838Z" fill="white"/>
<path d="M44.3798 56.1865C43.4575 56.1865 42.7007 55.9323 42.1095 55.4238C41.5182 54.9035 41.2226 54.2354 41.2226 53.4195C41.2226 52.58 41.536 51.9296 42.1627 51.4684C42.7894 50.9954 43.6644 50.7589 44.7878 50.7589C45.1189 50.7589 45.4559 50.7944 45.7988 50.8654C46.1417 50.9245 46.5142 51.0309 46.9163 51.1846V50.4397C46.9163 50.0021 46.7625 49.6711 46.4551 49.4464C46.1595 49.2217 45.7101 49.1094 45.1071 49.1094C44.7641 49.1094 44.3798 49.1626 43.9542 49.269C43.5403 49.3636 43.0673 49.5232 42.5352 49.7479L41.5419 47.7436C42.2869 47.4125 43.0023 47.1642 43.6881 46.9986C44.3858 46.8331 45.0716 46.7503 45.7456 46.7503C47.0109 46.7503 47.9923 47.0519 48.69 47.6549C49.3995 48.258 49.7542 49.1035 49.7542 50.1913V56.0446H46.9163V55.2464C46.5142 55.5775 46.1122 55.8199 45.7101 55.9737C45.3081 56.1156 44.8647 56.1865 44.3798 56.1865ZM43.8655 53.3663C43.8655 53.6619 43.9896 53.8925 44.2379 54.0581C44.4863 54.2118 44.8292 54.2886 45.2667 54.2886C45.5623 54.2886 45.8461 54.2532 46.1181 54.1822C46.4019 54.0994 46.6679 53.9812 46.9163 53.8275V52.6568C46.6561 52.5977 46.3901 52.5504 46.1181 52.5149C45.8579 52.4794 45.5978 52.4617 45.3377 52.4617C44.8647 52.4617 44.4981 52.5386 44.2379 52.6923C43.9896 52.846 43.8655 53.0707 43.8655 53.3663Z" fill="white"/>
<path d="M51.92 56.0446V46.8922H54.7934V48.3821C55.1481 47.85 55.5679 47.448 56.0527 47.176C56.5494 46.8922 57.0933 46.7503 57.6845 46.7503C58.5714 46.7503 59.2986 47.0459 59.8662 47.6372C60.4338 48.2166 60.7176 48.9616 60.7176 49.8721V56.0446H57.8442V50.7057C57.8442 50.1973 57.7023 49.7893 57.4185 49.4819C57.1465 49.1626 56.7799 49.003 56.3188 49.003C56.0113 49.003 55.7275 49.068 55.4674 49.1981C55.2191 49.3163 54.9944 49.5055 54.7934 49.7657V56.0446H51.92Z" fill="white"/>
<path d="M66.5206 56.0269C65.9648 56.0269 65.4386 55.9086 64.942 55.6721C64.4453 55.4238 64.0137 55.0927 63.6471 54.6789C63.2924 54.265 63.0086 53.7802 62.7958 53.2244C62.5829 52.6568 62.4765 52.0537 62.4765 51.4152C62.4765 50.7767 62.5829 50.1795 62.7958 49.6238C63.0204 49.068 63.322 48.5832 63.7004 48.1693C64.0906 47.7554 64.5458 47.4303 65.0661 47.1938C65.5864 46.9573 66.1422 46.839 66.7334 46.839C67.2182 46.839 67.6735 46.9395 68.0992 47.1405C68.5367 47.3416 68.9092 47.6254 69.2166 47.9919V46.8922H72.0368V56.1688C72.0368 57.3986 71.6171 58.3445 70.7775 59.0067C69.9498 59.6689 68.7614 60 67.2123 60C66.5265 60 65.8584 59.9291 65.208 59.7872C64.5577 59.6453 63.9605 59.4442 63.4166 59.1841L64.3034 57.1088C64.8119 57.3453 65.2967 57.5227 65.7579 57.641C66.219 57.7592 66.6684 57.8183 67.1059 57.8183C67.7799 57.8183 68.2943 57.6764 68.649 57.3926C69.0038 57.1088 69.1812 56.6891 69.1812 56.1333V54.8208C68.8855 55.1873 68.5012 55.4829 68.0282 55.7076C67.5553 55.9205 67.0527 56.0269 66.5206 56.0269ZM65.2967 51.4329C65.2967 52.0715 65.5036 52.6095 65.9175 53.047C66.3432 53.4727 66.8635 53.6856 67.4784 53.6856C67.8213 53.6856 68.1347 53.6264 68.4185 53.5082C68.7023 53.3781 68.9565 53.1948 69.1812 52.9583V49.9075C68.9565 49.6829 68.6963 49.5114 68.4007 49.3932C68.1169 49.2631 67.8095 49.1981 67.4784 49.1981C66.8517 49.1981 66.3314 49.4109 65.9175 49.8366C65.5036 50.2623 65.2967 50.7944 65.2967 51.4329Z" fill="white"/>
<path d="M75.5949 52.8697C76.0324 52.8697 76.4049 53.0353 76.7124 53.3664C77.0316 53.6975 77.1913 54.0936 77.1913 54.5548C77.1913 55.0159 77.0316 55.4121 76.7124 55.7432C76.4049 56.0742 76.0324 56.2398 75.5949 56.2398C75.1574 56.2398 74.779 56.0742 74.4597 55.7432C74.1405 55.4121 73.9808 55.0159 73.9808 54.5548C73.9808 54.0936 74.1405 53.6975 74.4597 53.3664C74.779 53.0353 75.1574 52.8697 75.5949 52.8697Z" fill="#06b7b4"/>
<path d="M81.6919 46.8923V52.2312C81.6919 52.7397 81.8279 53.1535 82.0999 53.4728C82.3837 53.7802 82.7562 53.934 83.2173 53.934C83.5248 53.934 83.8027 53.8748 84.051 53.7566C84.3111 53.6265 84.5417 53.4314 84.7427 53.1713V46.8923H87.6162V56.0447H84.7427V54.5548C84.388 55.0869 83.9623 55.4948 83.4657 55.7786C82.9808 56.0506 82.4428 56.1866 81.8516 56.1866C80.9647 56.1866 80.2375 55.8969 79.6699 55.3175C79.1023 54.7262 78.8185 53.9753 78.8185 53.0648V46.8923H81.6919Z" fill="#06b7b4"/>
<path d="M89.109 55.1046L90.3683 53.189C91.0187 53.5319 91.5626 53.7743 92.0002 53.9162C92.4377 54.0463 92.8752 54.1113 93.3127 54.1113C93.7147 54.1113 94.034 54.0463 94.2705 53.9162C94.507 53.7743 94.6253 53.591 94.6253 53.3664C94.6253 53.189 94.5543 53.0471 94.4124 52.9407C94.2823 52.8343 94.0695 52.7574 93.7739 52.7101L92.0179 52.3908C91.131 52.2253 90.457 51.9178 89.9959 51.4685C89.5465 51.0192 89.3218 50.4397 89.3218 49.7303C89.3218 48.7961 89.6588 48.063 90.3329 47.5308C91.0187 46.9987 91.9588 46.7327 93.1531 46.7327C93.7916 46.7327 94.4242 46.8214 95.0509 46.9987C95.6777 47.1761 96.2866 47.4362 96.8779 47.7792L95.5653 49.6061C95.1042 49.3459 94.6548 49.1508 94.2173 49.0208C93.7916 48.8907 93.3659 48.8257 92.9402 48.8257C92.5973 48.8257 92.3253 48.8848 92.1243 49.003C91.9351 49.1094 91.8405 49.2632 91.8405 49.4642C91.8405 49.6534 91.9056 49.7953 92.0356 49.8899C92.1775 49.9845 92.4258 50.0613 92.7806 50.1205L94.5011 50.4397C95.3998 50.6053 96.0856 50.9186 96.5586 51.3798C97.0316 51.8291 97.2622 52.3967 97.2504 53.0826C97.2504 53.5319 97.1499 53.9517 96.9488 54.3419C96.7596 54.7203 96.4877 55.0514 96.1329 55.3352C95.7782 55.6072 95.3584 55.8259 94.8736 55.9915C94.3888 56.1452 93.8685 56.2221 93.3127 56.2221C92.485 56.2221 91.7104 56.1275 90.9891 55.9383C90.2678 55.7491 89.6411 55.4712 89.109 55.1046Z" fill="#06b7b4"/>
<path d="M66.9751 0L56.8077 9.35401C49.5549 10.303 34.6428 12.2822 33.016 12.6076C33.8294 11.5908 34.6428 12.2009 34.6428 10.9808C34.6428 9.7607 30.1691 10.5741 27.3222 10.5741C24.4754 10.5741 26.3055 9.96405 25.8988 9.15066C24.4754 8.74396 20.205 9.55736 16.5448 9.96405C12.8845 10.3707 14.918 9.35401 15.7314 9.15066C16.5448 8.94731 21.8318 7.93057 27.9323 7.72722C29.3557 7.72722 39.1164 6.10044 41.3532 5.89709C43.1427 5.73441 45.6235 4.74479 46.6403 4.27031L66.9751 0Z" fill="white"/>
<path d="M25.4921 13.421C23.0519 13.2176 12.2745 15.6578 11.6644 15.6578C15.9347 15.6578 19.595 15.6578 23.8653 15.2511C27.3126 14.9228 27.9323 13.6243 25.4921 13.421Z" fill="white"/>
<path d="M65.145 32.9424L58.6378 9.96405L63.2132 5.81236L66.365 16.8779L68.8052 14.2344L65.9583 3.32135L69.6186 0L74.0923 18.5047L65.145 32.9424Z" fill="white"/>
<path fill-rule="evenodd" clip-rule="evenodd" d="M29.9657 14.2344L57.011 10.7775L63.7215 34.3658L37.4896 35.1792L36.3065 31.9257C36.3065 31.7223 35.6484 31.4376 33.0159 31.9257C29.7254 32.5357 30.1691 30.9089 31.9992 30.9089C33.8293 30.9089 34.236 30.0955 34.236 29.4855C34.236 29.0602 30.6773 29.2279 27.6953 29.3685C26.4004 29.4296 25.2141 29.4855 24.4753 29.4855C23.0459 29.4855 20.5 29.6948 18.391 29.8682C16.8996 29.9909 15.6267 30.0955 15.1213 30.0955C13.9012 30.0955 12.4778 29.4855 14.7146 29.0788C15.6605 28.9068 16.061 28.9894 16.5772 29.0958C17.2817 29.2411 18.2019 29.4309 21.0184 29.0788C27.7289 28.2654 32.4059 26.0286 33.626 24.4018C34.8461 22.775 27.3222 23.1817 23.6619 23.5884C20.0017 23.9951 21.4251 23.1817 23.2552 22.3683C25.0854 21.5549 23.4586 21.9616 22.4418 22.3683C21.4251 22.775 16.3414 22.775 13.4945 22.3683C11.8728 22.1366 11.3068 22.1689 10.0675 22.2396C9.13132 22.293 7.81083 22.3683 5.3606 22.3683L11.0543 20.9449C12.3558 20.6195 25.1778 19.1825 31.4261 18.5047L29.9657 14.2344ZM51.013 19.3706C50.1423 18.5129 47.1818 16.9692 43.8731 17.9984C41.6092 18.7025 40.0419 21.5637 41.0868 24.6512C42.2477 28.0817 45.6566 29.1476 48.0946 28.4615C50.5326 27.7754 52.7544 26.0601 52.5803 24.3448L48.0946 25.374L47.0498 22.4213L55.757 20.5345C57.1501 24.6512 55.4087 31.3774 48.0946 31.892C40.7806 32.4066 38.1684 26.881 37.646 24.6512C37.1235 22.4213 37.6469 15.8738 43.3507 14.9109C49.2295 13.9185 50.4906 14.433 53.451 16.9692L51.013 19.3706Z" fill="#06b7b4"/>
</svg>
