<svg width="120" height="63" viewBox="0 0 120 63" fill="none" xmlns="http://www.w3.org/2000/svg">
<path d="M107.574 0.375L89.8225 16.8155C77.1598 18.4833 51.1243 21.962 48.284 22.5339C49.7041 20.7469 51.1243 21.8191 51.1243 19.6747C51.1243 17.5303 43.3136 18.9599 38.3432 18.9599C33.3728 18.9599 36.5681 17.8877 35.858 16.4581C33.3728 15.7432 25.9172 17.1729 19.5266 17.8877C13.1361 18.6025 16.6864 16.8155 18.1065 16.4581C19.5266 16.1007 28.7574 14.3136 39.4083 13.9562C41.8935 13.9562 58.9349 11.097 62.8402 10.7396C65.9645 10.4537 70.2959 8.71436 72.071 7.88042L107.574 0.375Z" fill="#5D6E85"/>
<path d="M35.1479 23.9635C30.8876 23.6061 12.071 27.8949 11.0059 27.8949C18.4615 27.8949 24.8521 27.8949 32.3077 27.1801C38.3264 26.603 39.4083 24.3209 35.1479 23.9635Z" fill="#5D6E85"/>
<path d="M104.379 58.274L93.0178 17.8877L101.006 10.5907L106.509 30.0393L110.769 25.3931L105.799 6.21255L112.189 0.375L120 32.8985L104.379 58.274Z" fill="#5D6E85"/>
<path fill-rule="evenodd" clip-rule="evenodd" d="M42.9586 25.3931L90.1775 19.3173L101.893 60.7758L56.0947 62.2054L54.029 56.487C54.029 56.1296 52.88 55.6292 48.284 56.487C42.539 57.5592 43.3136 54.7 46.5089 54.7C49.7041 54.7 50.4142 53.2704 50.4142 52.1982C50.4142 51.4506 44.201 51.7455 38.9947 51.9926C36.7338 52.0999 34.6627 52.1982 33.3728 52.1982C30.8771 52.1982 26.4322 52.5661 22.75 52.8709C20.1462 53.0864 17.9238 53.2704 17.0414 53.2704C14.9112 53.2704 12.426 52.1982 16.3314 51.4834C17.9829 51.1811 18.682 51.3262 19.5833 51.5133C20.8134 51.7687 22.4199 52.1021 27.3373 51.4834C39.0532 50.0538 47.2189 46.1224 49.3491 43.2631C51.4793 40.4039 38.3432 41.1187 31.9527 41.8335C25.5621 42.5483 28.0473 41.1187 31.2426 39.6891C34.4379 38.2595 31.5976 38.9743 29.8225 39.6891C28.0473 40.4039 19.1716 40.4039 14.2012 39.6891C11.3697 39.2819 10.3817 39.3387 8.21793 39.4629C6.58339 39.5568 4.27792 39.6891 0 39.6891L9.94083 37.1873C12.213 36.6155 34.5992 34.0898 45.5083 32.8985L42.9586 25.3931ZM79.7055 34.4204C78.1853 32.9131 73.0166 30.1998 67.2398 32.0087C63.2872 33.2463 60.5509 38.275 62.3751 43.7015C64.4021 49.731 70.3537 51.6043 74.6103 50.3984C78.8669 49.1925 82.7459 46.1778 82.4419 43.1631L74.6103 44.9719L72.786 39.7824L87.9881 36.4662C90.4205 43.7015 87.3801 55.5235 74.6103 56.4279C61.8405 57.3323 57.2799 47.6207 56.3677 43.7015C55.4556 39.7824 56.3693 28.2745 66.3277 26.5822C76.5917 24.8379 78.7934 25.7423 83.9621 30.1998L79.7055 34.4204Z" fill="#57D9D7"/>
</svg>
