<svg width="80" height="111" viewBox="0 0 80 111" fill="none" xmlns="http://www.w3.org/2000/svg">
<rect y="0.79248" width="10" height="10" fill="#06b7b4"/>
<path d="M71.25 33.2925H8.75C7.09301 33.2945 5.50445 33.9536 4.33277 35.1253C3.1611 36.2969 2.50198 37.8855 2.5 39.5425V102.042C2.50198 103.699 3.1611 105.288 4.33277 106.46C5.50445 107.631 7.09301 108.29 8.75 108.292H71.25C72.907 108.29 74.4956 107.631 75.6672 106.46C76.8389 105.288 77.498 103.699 77.5 102.042V39.5425C77.498 37.8855 76.8389 36.2969 75.6672 35.1253C74.4956 33.9536 72.907 33.2945 71.25 33.2925ZM75 39.5425V45.7925H48.75V35.7925H71.25C72.2446 35.7925 73.1984 36.1876 73.9016 36.8908C74.6049 37.5941 75 38.5479 75 39.5425ZM31.25 53.2925H5V48.2925H31.25V53.2925ZM33.75 35.7925H46.25V62.2062L40.6937 58.5025C40.4883 58.3654 40.2469 58.2923 40 58.2923C39.7531 58.2923 39.5117 58.3654 39.3063 58.5025L33.75 62.2062V35.7925ZM48.75 48.2925H75V53.2925H48.75V48.2925ZM8.75 35.7925H31.25V45.7925H5V39.5425C5 38.5479 5.39509 37.5941 6.09835 36.8908C6.80161 36.1876 7.75544 35.7925 8.75 35.7925ZM71.25 105.792H8.75C7.75544 105.792 6.80161 105.397 6.09835 104.694C5.39509 103.991 5 103.037 5 102.042V55.7925H31.25V64.5425C31.25 64.7688 31.3114 64.9909 31.4277 65.185C31.5439 65.3791 31.7108 65.5381 31.9103 65.6448C32.1098 65.7516 32.3346 65.8022 32.5606 65.7912C32.7867 65.7802 33.0055 65.7081 33.1938 65.5825L40 61.0425L46.8063 65.58C46.9943 65.7055 47.2129 65.7776 47.4387 65.7887C47.6646 65.7997 47.8891 65.7494 48.0886 65.6429C48.2881 65.5364 48.4549 65.3779 48.5714 65.1841C48.6879 64.9903 48.7496 64.7686 48.75 64.5425V55.7925H75V102.042C75 103.037 74.6049 103.991 73.9016 104.694C73.1984 105.397 72.2446 105.792 71.25 105.792Z" fill="#06b7b4"/>
<path d="M70 87.0425H72.5V89.5425H70V87.0425Z" fill="#06b7b4"/>
<path d="M70 100.792H61.25V103.292H71.25C71.5815 103.292 71.8995 103.161 72.1339 102.926C72.3683 102.692 72.5 102.374 72.5 102.042V92.0425H70V100.792Z" fill="#06b7b4"/>
</svg>
