<svg width="80" height="111" viewBox="0 0 80 111" fill="none" xmlns="http://www.w3.org/2000/svg">
<rect y="0.79248" width="10" height="10" fill="#06b7b4"/>
<path d="M63.75 73.2925C63.9416 73.2924 64.1307 73.2484 64.3026 73.1636C64.4745 73.0789 64.6245 72.9557 64.7412 72.8037C65.2612 72.1275 77.5 56.1137 77.5 47.0425C77.5 43.3958 76.0513 39.8984 73.4727 37.3198C70.8941 34.7411 67.3967 33.2925 63.75 33.2925C60.1033 33.2925 56.6059 34.7411 54.0273 37.3198C51.4487 39.8984 50 43.3958 50 47.0425C50 56.1137 62.2388 72.1275 62.7588 72.8037C62.8755 72.9557 63.0255 73.0789 63.1974 73.1636C63.3693 73.2484 63.5584 73.2924 63.75 73.2925ZM63.75 35.7925C66.7327 35.7958 69.5922 36.9821 71.7013 39.0912C73.8104 41.2003 74.9967 44.0598 75 47.0425C75 53.8625 66.665 65.9325 63.75 69.9437C60.835 65.9337 52.5 53.8675 52.5 47.0425C52.5033 44.0598 53.6896 41.2003 55.7987 39.0912C57.9078 36.9821 60.7673 35.7958 63.75 35.7925Z" fill="#06b7b4"/>
<path d="M72.5 47.0425C72.5 45.3119 71.9868 43.6201 71.0254 42.1812C70.0639 40.7423 68.6973 39.6208 67.0985 38.9585C65.4996 38.2962 63.7403 38.123 62.043 38.4606C60.3456 38.7982 58.7865 39.6316 57.5628 40.8553C56.3391 42.079 55.5058 43.6381 55.1681 45.3354C54.8305 47.0327 55.0038 48.7921 55.6661 50.3909C56.3283 51.9898 57.4498 53.3563 58.8888 54.3178C60.3277 55.2793 62.0194 55.7924 63.75 55.7924C66.0697 55.7895 68.2936 54.8666 69.9339 53.2263C71.5742 51.586 72.497 49.3622 72.5 47.0425ZM57.5 47.0425C57.5 45.8063 57.8666 44.5979 58.5533 43.5701C59.2401 42.5423 60.2162 41.7413 61.3582 41.2682C62.5003 40.7952 63.7569 40.6714 64.9693 40.9125C66.1817 41.1537 67.2953 41.749 68.1694 42.623C69.0435 43.4971 69.6388 44.6108 69.8799 45.8231C70.1211 47.0355 69.9973 48.2922 69.5242 49.4342C69.0512 50.5763 68.2501 51.5524 67.2223 52.2391C66.1945 52.9259 64.9861 53.2924 63.75 53.2924C62.093 53.2905 60.5045 52.6313 59.3328 51.4597C58.1611 50.288 57.502 48.6994 57.5 47.0425Z" fill="#06b7b4"/>
<path d="M26.25 80.7925H6.25C5.25544 80.7925 4.30161 81.1876 3.59835 81.8908C2.89509 82.5941 2.5 83.5479 2.5 84.5425V104.542C2.5 105.537 2.89509 106.491 3.59835 107.194C4.30161 107.897 5.25544 108.292 6.25 108.292H26.25C27.2446 108.292 28.1984 107.897 28.9017 107.194C29.6049 106.491 30 105.537 30 104.542V84.5425C30 83.5479 29.6049 82.5941 28.9017 81.8908C28.1984 81.1876 27.2446 80.7925 26.25 80.7925ZM27.5 84.5425V88.2925H20V83.2925H26.25C26.5815 83.2925 26.8995 83.4242 27.1339 83.6586C27.3683 83.893 27.5 84.211 27.5 84.5425ZM15 83.2925H17.5V91.525L17.1337 91.1587C16.8993 90.9244 16.5815 90.7927 16.25 90.7927C15.9185 90.7927 15.6007 90.9244 15.3663 91.1587L15 91.525V83.2925ZM6.25 83.2925H12.5V88.2925H5V84.5425C5 84.211 5.1317 83.893 5.36612 83.6586C5.60054 83.4242 5.91848 83.2925 6.25 83.2925ZM26.25 105.792H6.25C5.91848 105.792 5.60054 105.661 5.36612 105.426C5.1317 105.192 5 104.874 5 104.542V90.7925H12.5V94.5425C12.5001 94.7897 12.5734 95.0313 12.7107 95.2368C12.8481 95.4423 13.0433 95.6025 13.2717 95.6971C13.5001 95.7917 13.7513 95.8164 13.9938 95.7682C14.2362 95.72 14.4589 95.601 14.6337 95.4262L16.25 93.81L17.8663 95.4262C18.1006 95.6607 18.4185 95.7924 18.75 95.7925C18.9143 95.793 19.0771 95.7607 19.2288 95.6975C19.4571 95.6028 19.6523 95.4425 19.7895 95.237C19.9268 95.0314 20.0001 94.7897 20 94.5425V90.7925H27.5V104.542C27.5 104.874 27.3683 105.192 27.1339 105.426C26.8995 105.661 26.5815 105.792 26.25 105.792Z" fill="#06b7b4"/>
<path d="M12.5 35.7925H45V97.0425C45 97.374 45.1317 97.6919 45.3661 97.9264C45.6005 98.1608 45.9185 98.2925 46.25 98.2925H58.75C59.0815 98.2925 59.3995 98.1608 59.6339 97.9264C59.8683 97.6919 60 97.374 60 97.0425V75.7925H57.5V95.7925H47.5V34.5425C47.5 34.211 47.3683 33.893 47.1339 33.6586C46.8995 33.4242 46.5815 33.2925 46.25 33.2925H11.25C10.9185 33.2925 10.6005 33.4242 10.3661 33.6586C10.1317 33.893 10 34.211 10 34.5425V78.2925H12.5V35.7925Z" fill="#06b7b4"/>
<path d="M67.5 105.792H37.5V44.5425C37.5 44.211 37.3683 43.893 37.1339 43.6586C36.8995 43.4242 36.5815 43.2925 36.25 43.2925H21.25C20.9185 43.2925 20.6005 43.4242 20.3661 43.6586C20.1317 43.893 20 44.211 20 44.5425V78.2925H22.5V45.7925H35V107.042C35 107.374 35.1317 107.692 35.3661 107.926C35.6005 108.161 35.9185 108.292 36.25 108.292H68.75C69.0815 108.292 69.3995 108.161 69.6339 107.926C69.8683 107.692 70 107.374 70 107.042V75.7925H67.5V105.792Z" fill="#06b7b4"/>
<path d="M15 73.2925H17.5V78.2925H15V73.2925Z" fill="#06b7b4"/>
<path d="M15 63.2925H17.5V68.2925H15V63.2925Z" fill="#06b7b4"/>
<path d="M15 53.2925H17.5V58.2925H15V53.2925Z" fill="#06b7b4"/>
<path d="M15 43.2925H17.5V48.2925H15V43.2925Z" fill="#06b7b4"/>
<path d="M40 73.2925H42.5V78.2925H40V73.2925Z" fill="#06b7b4"/>
<path d="M40 63.2925H42.5V68.2925H40V63.2925Z" fill="#06b7b4"/>
<path d="M40 93.2925H42.5V98.2925H40V93.2925Z" fill="#06b7b4"/>
<path d="M40 83.2925H42.5V88.2925H40V83.2925Z" fill="#06b7b4"/>
<path d="M62.5 93.2925H65V98.2925H62.5V93.2925Z" fill="#06b7b4"/>
<path d="M62.5 83.2925H65V88.2925H62.5V83.2925Z" fill="#06b7b4"/>
<path d="M40 53.2925H42.5V58.2925H40V53.2925Z" fill="#06b7b4"/>
<path d="M40 43.2925H42.5V48.2925H40V43.2925Z" fill="#06b7b4"/>
<path d="M15 38.2925H20V40.7925H15V38.2925Z" fill="#06b7b4"/>
<path d="M22.5 38.2925H27.5V40.7925H22.5V38.2925Z" fill="#06b7b4"/>
<path d="M30 38.2925H35V40.7925H30V38.2925Z" fill="#06b7b4"/>
<path d="M37.5 38.2925H42.5V40.7925H37.5V38.2925Z" fill="#06b7b4"/>
<path d="M40 100.792H45V103.292H40V100.792Z" fill="#06b7b4"/>
<path d="M50 100.792H55V103.292H50V100.792Z" fill="#06b7b4"/>
<path d="M60 100.792H65V103.292H60V100.792Z" fill="#06b7b4"/>
<path d="M62.5 75.7925H65V78.2925H62.5V75.7925Z" fill="#06b7b4"/>
</svg>
