<svg width="80" height="111" viewBox="0 0 80 111" fill="none" xmlns="http://www.w3.org/2000/svg">
<rect y="0.79248" width="10" height="10" fill="#06b7b4"/>
<path d="M15 97.0425C14.2583 97.0425 13.5333 97.2624 12.9166 97.6745C12.2999 98.0865 11.8193 98.6722 11.5355 99.3574C11.2516 100.043 11.1774 100.797 11.3221 101.524C11.4668 102.252 11.8239 102.92 12.3484 103.444C12.8728 103.969 13.541 104.326 14.2684 104.47C14.9958 104.615 15.7498 104.541 16.4351 104.257C17.1203 103.973 17.706 103.493 18.118 102.876C18.5301 102.259 18.75 101.534 18.75 100.792C18.75 99.7979 18.3549 98.8441 17.6516 98.1408C16.9484 97.4376 15.9946 97.0425 15 97.0425ZM15 102.042C14.7528 102.042 14.5111 101.969 14.3055 101.832C14.1 101.694 13.9398 101.499 13.8452 101.271C13.7505 101.042 13.7258 100.791 13.774 100.549C13.8223 100.306 13.9413 100.083 14.1161 99.9086C14.2909 99.7338 14.5137 99.6147 14.7561 99.5665C14.9986 99.5183 15.2499 99.543 15.4784 99.6376C15.7068 99.7322 15.902 99.8925 16.0393 100.098C16.1767 100.304 16.25 100.545 16.25 100.792C16.25 101.124 16.1183 101.442 15.8839 101.676C15.6495 101.911 15.3315 102.042 15 102.042Z" fill="#06b7b4"/>
<path d="M35 97.0425C34.2583 97.0425 33.5333 97.2624 32.9166 97.6745C32.2999 98.0865 31.8193 98.6722 31.5355 99.3574C31.2516 100.043 31.1774 100.797 31.3221 101.524C31.4668 102.252 31.8239 102.92 32.3484 103.444C32.8728 103.969 33.541 104.326 34.2684 104.47C34.9958 104.615 35.7498 104.541 36.4351 104.257C37.1203 103.973 37.706 103.493 38.118 102.876C38.5301 102.259 38.75 101.534 38.75 100.792C38.75 99.7979 38.3549 98.8441 37.6516 98.1408C36.9484 97.4376 35.9946 97.0425 35 97.0425ZM35 102.042C34.7528 102.042 34.5111 101.969 34.3055 101.832C34.1 101.694 33.9398 101.499 33.8452 101.271C33.7505 101.042 33.7258 100.791 33.774 100.549C33.8223 100.306 33.9413 100.083 34.1161 99.9086C34.2909 99.7338 34.5137 99.6147 34.7561 99.5665C34.9986 99.5183 35.2499 99.543 35.4784 99.6376C35.7068 99.7322 35.902 99.8925 36.0393 100.098C36.1767 100.304 36.25 100.545 36.25 100.792C36.25 101.124 36.1183 101.442 35.8839 101.676C35.6495 101.911 35.3315 102.042 35 102.042Z" fill="#06b7b4"/>
<path d="M76.25 98.2925H74.775C74.9205 97.8916 74.9966 97.4689 75 97.0425V87.0425C74.9976 86.1168 74.6499 85.2254 74.025 84.5425C74.6499 83.8596 74.9976 82.9681 75 82.0425V72.0425C74.9976 71.1168 74.6499 70.2254 74.025 69.5425C74.6499 68.8596 74.9976 67.9681 75 67.0425V57.0425C74.997 56.0488 74.601 55.0967 73.8984 54.3941C73.1958 53.6915 72.2437 53.2955 71.25 53.2925H61.25C60.2564 53.2955 59.3042 53.6915 58.6016 54.3941C57.899 55.0967 57.503 56.0488 57.5 57.0425V67.0425C57.5024 67.9681 57.8501 68.8596 58.475 69.5425C57.8501 70.2254 57.5024 71.1168 57.5 72.0425V82.0425C57.5024 82.9681 57.8501 83.8596 58.475 84.5425C57.8501 85.2254 57.5024 86.1168 57.5 87.0425V97.0425C57.5034 97.4689 57.5795 97.8916 57.725 98.2925H55V34.5425C55 34.211 54.8683 33.893 54.6339 33.6586C54.3995 33.4242 54.0815 33.2925 53.75 33.2925H48.75C48.4185 33.2925 48.1005 33.4242 47.8661 33.6586C47.6317 33.893 47.5 34.211 47.5 34.5425V68.055L40.525 47.005C40.2609 46.2826 39.7811 45.6588 39.1505 45.2183C38.5199 44.7778 37.7692 44.5419 37 44.5425H6.25C5.25635 44.5454 4.30425 44.9415 3.60163 45.6441C2.89901 46.3467 2.50297 47.2988 2.5 48.2925V100.792C2.5 101.124 2.6317 101.442 2.86612 101.676C3.10054 101.911 3.41848 102.042 3.75 102.042H6.35C6.64888 104.124 7.68801 106.027 9.27681 107.404C10.8656 108.781 12.8976 109.539 15 109.539C17.1024 109.539 19.1344 108.781 20.7232 107.404C22.312 106.027 23.3511 104.124 23.65 102.042H26.35C26.6489 104.124 27.688 106.027 29.2768 107.404C30.8656 108.781 32.8976 109.539 35 109.539C37.1024 109.539 39.1344 108.781 40.7232 107.404C42.312 106.027 43.3511 104.124 43.65 102.042H47.5V104.542C47.5 104.874 47.6317 105.192 47.8661 105.426C48.1005 105.661 48.4185 105.792 48.75 105.792H76.25C76.5815 105.792 76.8995 105.661 77.1339 105.426C77.3683 105.192 77.5 104.874 77.5 104.542V99.5425C77.5 99.211 77.3683 98.893 77.1339 98.6586C76.8995 98.4242 76.5815 98.2925 76.25 98.2925ZM47.5 99.5425H43.65C43.3511 97.4614 42.312 95.5578 40.7232 94.1809C39.1344 92.804 37.1024 92.046 35 92.046C32.8976 92.046 30.8656 92.804 29.2768 94.1809C27.688 95.5578 26.6489 97.4614 26.35 99.5425H23.65C23.3511 97.4614 22.312 95.5578 20.7232 94.1809C19.1344 92.804 17.1024 92.046 15 92.046C12.8976 92.046 10.8656 92.804 9.27681 94.1809C7.68801 95.5578 6.64888 97.4614 6.35 99.5425H5V77.0425H47.5V99.5425ZM35 107.042C33.7639 107.042 32.5555 106.676 31.5277 105.989C30.4999 105.302 29.6988 104.326 29.2258 103.184C28.7527 102.042 28.6289 100.786 28.8701 99.5732C29.1112 98.3608 29.7065 97.2471 30.5806 96.3731C31.4547 95.499 32.5683 94.9037 33.7807 94.6626C34.9931 94.4214 36.2497 94.5452 37.3918 95.0182C38.5338 95.4913 39.5099 96.2924 40.1967 97.3202C40.8834 98.348 41.25 99.5564 41.25 100.792C41.25 102.45 40.5915 104.04 39.4194 105.212C38.2473 106.384 36.6576 107.042 35 107.042ZM17.5 47.0425H37C37.251 47.0395 37.4969 47.1133 37.7047 47.2541C37.9125 47.3948 38.0722 47.5958 38.1625 47.83L47.0125 74.5425H17.5V47.0425ZM5 48.2925C5 47.961 5.1317 47.643 5.36612 47.4086C5.60054 47.1742 5.91848 47.0425 6.25 47.0425H15V74.5425H5V48.2925ZM15 107.042C13.7639 107.042 12.5555 106.676 11.5277 105.989C10.4999 105.302 9.6988 104.326 9.22575 103.184C8.75271 102.042 8.62893 100.786 8.87009 99.5732C9.11125 98.3608 9.7065 97.2471 10.5806 96.3731C11.4547 95.499 12.5683 94.9037 13.7807 94.6626C14.9931 94.4214 16.2497 94.5452 17.3918 95.0182C18.5338 95.4913 19.5099 96.2924 20.1967 97.3202C20.8834 98.348 21.25 99.5564 21.25 100.792C21.25 102.45 20.5915 104.04 19.4194 105.212C18.2473 106.384 16.6576 107.042 15 107.042ZM67.5 62.0425V60.7925H72.5V67.0425C72.5 67.374 72.3683 67.6919 72.1339 67.9264C71.8995 68.1608 71.5815 68.2925 71.25 68.2925H61.25C60.9185 68.2925 60.6005 68.1608 60.3661 67.9264C60.1317 67.6919 60 67.374 60 67.0425V60.7925H65V62.0425H67.5ZM67.5 92.0425V90.7925H72.5V97.0425C72.5 97.374 72.3683 97.6919 72.1339 97.9264C71.8995 98.1608 71.5815 98.2925 71.25 98.2925H61.25C60.9185 98.2925 60.6005 98.1608 60.3661 97.9264C60.1317 97.6919 60 97.374 60 97.0425V90.7925H65V92.0425H67.5ZM60 87.0425C60 86.711 60.1317 86.393 60.3661 86.1586C60.6005 85.9242 60.9185 85.7925 61.25 85.7925H65V88.2925H60V87.0425ZM72.5 88.2925H67.5V85.7925H71.25C71.5815 85.7925 71.8995 85.9242 72.1339 86.1586C72.3683 86.393 72.5 86.711 72.5 87.0425V88.2925ZM72.5 82.0425C72.5 82.374 72.3683 82.6919 72.1339 82.9264C71.8995 83.1608 71.5815 83.2925 71.25 83.2925H61.25C60.9185 83.2925 60.6005 83.1608 60.3661 82.9264C60.1317 82.6919 60 82.374 60 82.0425V75.7925H65V77.0425H67.5V75.7925H72.5V82.0425ZM60 72.0425C60 71.711 60.1317 71.393 60.3661 71.1586C60.6005 70.9242 60.9185 70.7925 61.25 70.7925H65V73.2925H60V72.0425ZM72.5 73.2925H67.5V70.7925H71.25C71.5815 70.7925 71.8995 70.9242 72.1339 71.1586C72.3683 71.393 72.5 71.711 72.5 72.0425V73.2925ZM67.5 55.7925H71.25C71.5815 55.7925 71.8995 55.9242 72.1339 56.1586C72.3683 56.393 72.5 56.711 72.5 57.0425V58.2925H67.5V55.7925ZM60 57.0425C60 56.711 60.1317 56.393 60.3661 56.1586C60.6005 55.9242 60.9185 55.7925 61.25 55.7925H65V58.2925H60V57.0425ZM75 103.292H50V35.7925H52.5V99.5425C52.5 99.874 52.6317 100.192 52.8661 100.426C53.1005 100.661 53.4185 100.792 53.75 100.792H75V103.292Z" fill="#06b7b4"/>
<path d="M44.575 71.6175L37.3 51.6175C37.2127 51.3759 37.053 51.1671 36.8428 51.0195C36.6325 50.8718 36.3819 50.7926 36.125 50.7925H20C19.6685 50.7925 19.3505 50.9242 19.1161 51.1586C18.8817 51.393 18.75 51.711 18.75 52.0425V72.0425C18.75 72.374 18.8817 72.6919 19.1161 72.9264C19.3505 73.1608 19.6685 73.2925 20 73.2925H43.4C43.6007 73.2924 43.7984 73.244 43.9764 73.1514C44.1544 73.0587 44.3076 72.9246 44.4228 72.7603C44.538 72.596 44.612 72.4064 44.6385 72.2075C44.665 72.0086 44.6432 71.8062 44.575 71.6175ZM21.25 70.7925V53.2925H35.25L41.6125 70.7925H21.25Z" fill="#06b7b4"/>
</svg>
